<svg xmlns="http://www.w3.org/2000/svg" width="34" height="34"><path d="M33.433 28.333h-1.134v-.567a1.7 1.7 0 00-1.133-1.6V14.629a1.7 1.7 0 001.133-1.6v-.567a1.7 1.7 0 100-3.4h-.406L17.299.084a.567.567 0 00-.594 0L2.106 9.066h-.407a1.7 1.7 0 000 3.4v.567a1.7 1.7 0 001.133 1.6v11.538a1.7 1.7 0 00-1.133 1.6v.567H.567a.567.567 0 00-.568.562v4.533A.567.567 0 00.567 34h32.866a.567.567 0 00.566-.567V28.9a.567.567 0 00-.566-.567zm-2.267-15.3a.567.567 0 01-.567.567h-2.266a.567.567 0 01-.567-.567v-.567h3.4zM30.599 27.2a.567.567 0 01.567.567v.567h-3.4v-.567a.567.567 0 01.567-.567zm-1.7-1.133V14.733h1.133v11.333zm-27.2-14.734a.567.567 0 010-1.133h3.968V9.066H4.269l12.73-7.834 12.732 7.834H9.067V10.2h23.232a.567.567 0 010 1.133zm11.334 14.838V14.629a1.7 1.7 0 001.133-1.6v-.567h5.667v.567a1.7 1.7 0 001.133 1.6v11.542a1.7 1.7 0 00-1.133 1.6v.567h-5.666v-.567a1.7 1.7 0 00-1.134-1.6zm-.566 1.029a.567.567 0 01.567.567v.567h-3.4v-.567a.567.567 0 01.565-.567zm-1.7-1.133V14.733h1.132v11.333zm1.7-12.467h-2.268a.567.567 0 01-.567-.567v-.567h3.4v.567a.567.567 0 01-.565.567zm8.5 14.167a.567.567 0 01.567-.567h2.265a.567.567 0 01.567.567v.567h-3.4zm1.133-1.7V14.733h1.133v11.333zM23.799 13.6h-2.266a.567.567 0 01-.567-.567v-.567h3.4v.567a.567.567 0 01-.567.567zm-20.4 0a.567.567 0 01-.567-.567v-.567h3.4v.567a.567.567 0 01-.567.567zm1.7 1.133v11.333H3.967V14.733h1.132zM2.833 27.766a.567.567 0 01.566-.566h2.268a.567.567 0 01.567.567v.567h-3.4zm4.533 5.1H1.133v-3.4h6.234zm-1.133-6.7V14.629a1.7 1.7 0 001.133-1.6v-.567h1.133v.567a1.7 1.7 0 001.133 1.6v11.542a1.7 1.7 0 00-1.133 1.6v.567H7.367v-.567a1.7 1.7 0 00-1.134-1.6zm19.267 6.7H8.499v-1.133h13.6V30.6h-13.6v-1.134h17zm-1.133-6.7V14.629a1.7 1.7 0 001.133-1.6v-.567h1.133v.567a1.7 1.7 0 001.133 1.6v11.542a1.7 1.7 0 00-1.133 1.6v.567h-1.134v-.567a1.7 1.7 0 00-1.132-1.6zm8.5 6.7h-6.234v-3.4h6.233z"/><path d="M23.233 30.6h1.133v1.133h-1.133zM6.8 9.066h1.133v1.133H6.8zM17 3.398a2.267 2.267 0 102.267 2.267A2.267 2.267 0 0017 3.398zm0 3.4a1.133 1.133 0 111.133-1.133A1.133 1.133 0 0117 6.798z"/></svg>