<svg xmlns="http://www.w3.org/2000/svg" width="34" height="34"><path d="M30.343 29.815l-4.3-7.45a3.847 3.847 0 001.338-2.423 2.5 2.5 0 01.953-1.652 3.857 3.857 0 001.205-4.5 2.5 2.5 0 010-1.907 3.857 3.857 0 00-1.205-4.5 2.5 2.5 0 01-.953-1.652 3.857 3.857 0 00-3.293-3.292 2.5 2.5 0 01-1.651-.953 3.857 3.857 0 00-4.5-1.205 2.5 2.5 0 01-1.907 0 3.857 3.857 0 00-4.5 1.205 2.5 2.5 0 01-1.652.953 3.857 3.857 0 00-3.292 3.293 2.5 2.5 0 01-.953 1.652 3.857 3.857 0 00-1.205 4.5 2.5 2.5 0 010 1.907 3.857 3.857 0 001.205 4.5 2.5 2.5 0 01.953 1.651 3.847 3.847 0 001.366 2.447l-4.281 7.426a.664.664 0 00.747.974l3.737-1 1 3.721a.664.664 0 001.217.16l4.627-8.014a3.815 3.815 0 001.038-.262 2.5 2.5 0 011.907 0 3.817 3.817 0 001.083.267l4.624 8.008a.664.664 0 001.217-.16l1-3.721 3.737 1a.664.664 0 00.747-.974zm-20.325 1.8l-.754-2.814a.664.664 0 00-.813-.47l-2.83.758 3.49-6.044a3.82 3.82 0 00.772.188 2.5 2.5 0 011.652.953 3.839 3.839 0 002 1.344zm5.51-7.452a2.525 2.525 0 01-2.944-.789 3.824 3.824 0 00-2.523-1.457 2.525 2.525 0 01-2.155-2.155 3.824 3.824 0 00-1.457-2.523 2.525 2.525 0 01-.789-2.944 3.823 3.823 0 000-2.913 2.525 2.525 0 01.789-2.944 3.824 3.824 0 001.457-2.523 2.525 2.525 0 012.155-2.155 3.823 3.823 0 002.523-1.459 2.522 2.522 0 012.944-.789 3.824 3.824 0 002.913 0 2.525 2.525 0 012.944.789 3.823 3.823 0 002.523 1.457 2.525 2.525 0 012.155 2.155 3.824 3.824 0 001.457 2.523 2.525 2.525 0 01.789 2.944 3.824 3.824 0 000 2.913 2.525 2.525 0 01-.789 2.944 3.824 3.824 0 00-1.457 2.523 2.525 2.525 0 01-2.155 2.155 3.823 3.823 0 00-2.523 1.457 2.524 2.524 0 01-2.944.789 3.824 3.824 0 00-2.913 0zm10.033 4.169a.664.664 0 00-.813.47l-.754 2.814-3.523-6.095a3.839 3.839 0 001.961-1.333 2.5 2.5 0 011.651-.953 3.817 3.817 0 00.806-.2l3.5 6.057z"/><path d="M13.966 10.379L11.9 12.445a.664.664 0 000 .939l3.876 3.876a.664.664 0 00.939 0l5.4-5.4a.664.664 0 000-.939l-2.066-2.066a.664.664 0 00-.939 0l-2.86 2.86-1.34-1.34a.664.664 0 00-.939 0zm1.809 2.749a.664.664 0 00.939 0l2.86-2.86 1.127 1.127-4.457 4.457-2.936-2.936 1.127-1.127z"/><path d="M25.639 13.062a8.637 8.637 0 00-5.453-8.029.664.664 0 00-.49 1.235 7.306 7.306 0 11-5.383 0 .664.664 0 00-.49-1.235 8.635 8.635 0 1011.816 8.029z"/><path d="M17.005 5.756a.664.664 0 10-.47-.195.666.666 0 00.47.195z"/></svg>