<svg xmlns="http://www.w3.org/2000/svg" width="34" height="34"><path d="M33.934 18.389A13.4 13.4 0 0023.512 6.638V4.949A2.258 2.258 0 0022.967.5h-4.781a2.258 2.258 0 00-.545 4.449v1.689a13.334 13.334 0 00-6.541 3.6 13.478 13.478 0 00-1.128 1.28H5.191a.664.664 0 100 1.328H9.07a13.313 13.313 0 00-1.178 2.552H.664a.664.664 0 100 1.328h6.852a13.5 13.5 0 00-.33 2.552H4.25a.664.664 0 000 1.328h2.958a13.482 13.482 0 00.415 2.552H3.32a.664.664 0 100 1.328h4.726a13.412 13.412 0 0011.214 8.586q.658.065 1.316.065a13.446 13.446 0 007.324-2.163.664.664 0 10-.725-1.113 12.086 12.086 0 113.56-3.564.664.664 0 101.114.723 13.457 13.457 0 002.085-8.631zM17.256 2.758a.931.931 0 01.93-.93h4.781a.93.93 0 010 1.859h-4.781a.931.931 0 01-.93-.929zm1.713 3.655v-1.4h3.215v1.394a13.531 13.531 0 00-3.215.005z"/><path d="M29.602 28.075a.664.664 0 10.47.195.667.667 0 00-.47-.195zM20.587 9.422a10.3 10.3 0 1010.3 10.3 10.313 10.313 0 00-10.3-10.3zm0 19.275a8.974 8.974 0 118.974-8.974 8.984 8.984 0 01-8.974 8.974z"/><path d="M24.787 14.584l-3.289 3.289a2.058 2.058 0 00-1.823 0l-1.472-1.472a.664.664 0 00-.939.939l1.472 1.472a2.064 2.064 0 103.7 0l3.193-3.193.1-.1a.664.664 0 00-.939-.939zm-4.2 5.875a.735.735 0 11.735-.735.736.736 0 01-.736.735zm7.099-1.392h-.615a.664.664 0 100 1.328h.615a.664.664 0 000-1.328zm-13.585-.016h-.615a.664.664 0 100 1.328h.615a.664.664 0 100-1.328zm6.493-5.149a.664.664 0 00.664-.664v-.615a.664.664 0 10-1.328 0v.615a.664.664 0 00.664.664zm-.016 11.642a.664.664 0 00-.664.664v.615a.664.664 0 001.328 0v-.615a.664.664 0 00-.664-.664zM.664 23.157a.664.664 0 10.469 1.134.664.664 0 00-.469-1.134z"/></svg>