<svg xmlns="http://www.w3.org/2000/svg" viewBox="0 0 32 32"><path d="M22.4 7.1H9.6c-.2 0-.4.2-.4.4v17c0 .2.2.4.4.4h3.8c.2 0 .4-.2.4-.4v-3.1h4.5v3.1c0 .2.2.4.4.4h3.8c.2 0 .4-.2.4-.4v-17c-.1-.2-.3-.4-.5-.4zm-8.9 11.4c0 .2-.1.3-.3.3h-1.7c-.2 0-.3-.1-.3-.3v-1.7c0-.2.1-.3.3-.3h1.7c.2 0 .3.1.3.3v1.7zm0-3.6c0 .2-.1.3-.3.3h-1.7c-.2 0-.3-.1-.3-.3v-1.7c0-.2.1-.3.3-.3h1.7c.2 0 .3.1.3.3v1.7zm0-3.7c0 .2-.1.3-.3.3h-1.7c-.2 0-.3-.1-.3-.3V9.5c0-.2.1-.3.3-.3h1.7c.2 0 .3.1.3.3v1.7zm3.7 7.3c0 .2-.1.3-.3.3h-1.7c-.2 0-.3-.1-.3-.3v-1.7c0-.2.1-.3.3-.3h1.7c.2 0 .3.1.3.3v1.7zm0-3.6c0 .2-.1.3-.3.3h-1.7c-.2 0-.3-.1-.3-.3v-1.7c0-.2.1-.3.3-.3h1.7c.2 0 .3.1.3.3v1.7zm0-3.7c0 .2-.1.3-.3.3h-1.7c-.2 0-.3-.1-.3-.3V9.5c0-.2.1-.3.3-.3h1.7c.2 0 .3.1.3.3v1.7zm3.6 7.3c0 .2-.1.3-.3.3h-1.7c-.2 0-.3-.1-.3-.3v-1.7c0-.2.1-.3.3-.3h1.7c.2 0 .3.1.3.3v1.7zm0-3.6c0 .2-.1.3-.3.3h-1.7c-.2 0-.3-.1-.3-.3v-1.7c0-.2.1-.3.3-.3h1.7c.2 0 .3.1.3.3v1.7zm0-3.7c0 .2-.1.3-.3.3h-1.7c-.2 0-.3-.1-.3-.3V9.5c0-.2.1-.3.3-.3h1.7c.2 0 .3.1.3.3v1.7z"/></svg>