<svg xmlns="http://www.w3.org/2000/svg" width="20" height="20"><g fill="#101010"><path d="M4.7 12.9c1.7 2.1 3.9 3.7 6.3 4.9 1.1.6 2.3.9 3.5 1h.3c.9 0 1.7-.3 2.3-1 .2-.3.5-.5.7-.7.2-.2.4-.3.5-.5.7-.7.8-1.8.1-2.5l-.1-.1-2.3-2.2c-.3-.4-.8-.6-1.3-.6s-1 .2-1.3.6l-1.3 1.3c-.1-.1-.2-.1-.4-.2-.1-.1-.3-.1-.4-.2-1.3-.8-2.4-1.8-3.3-3-.4-.6-.8-1.2-1.1-1.8.3-.3.7-.6 1-1 .1-.1.2-.2.3-.4.4-.3.6-.8.6-1.3s-.2-1-.6-1.3L7.1 2.8c-.1-.1-.2-.3-.4-.4L6 1.7c-.4-.4-.8-.6-1.3-.6s-1 .2-1.3.6L2 3.1c-.5.4-.8 1.1-.8 1.8 0 1 .1 2 .5 2.9.7 1.9 1.7 3.6 3 5.1zm-2.6-8c0-.5.2-.9.6-1.3L4 2.3c.2-.2.4-.3.7-.3.3 0 .5.1.7.3l.7.7.4.4 1.1 1.1c.2.2.3.5.3.7 0 .3-.1.5-.3.7l-.4.4-1 1c-.2.2-.3.5-.2.8.3.8.8 1.5 1.3 2.1 1 1.3 2.2 2.4 3.6 3.2.2.1.3.2.5.3.1.1.3.1.4.2.1.1.2.1.4.1s.4-.1.5-.3l1.4-1.4c.2-.2.4-.3.7-.3.3 0 .5.1.7.3l2.2 2.2c.4.3.4.9.1 1.2 0 .1-.1.1-.1.1l-.5.5-.8.8c-.4.4-1 .7-1.6.7h-.2c-1.1-.1-2.2-.4-3.2-.9-2.3-1.1-4.3-2.7-6-4.7-1.2-1.4-2.2-3.1-2.9-4.8-.3-.7-.5-1.6-.4-2.5z"/><path d="M14.9 19c-.1 0-.1 0 0 0-.1 0-.1 0 0 0h-.3c-1.3-.1-2.5-.5-3.6-1.1-2.4-1.2-4.6-2.9-6.3-5-1.3-1.5-2.4-3.3-3.1-5.2-.5-.8-.6-1.8-.6-2.8.1-.8.4-1.4.9-1.9l1.4-1.4c.3-.4.8-.6 1.4-.6.5 0 1 .2 1.4.6l.7.7.1.1.3.3 1.1 1.1c.4.4.7.9.7 1.4 0 .6-.3 1.1-.7 1.4L8 7l-.9.9c.3.6.6 1.1 1 1.7.9 1.2 2 2.2 3.3 3 .1.1.3.1.4.2.1 0 .2.1.3.1l1.2-1.2c.4-.4.9-.6 1.4-.6.5 0 1.1.2 1.4.7l2.2 2.2.1.1c.3.4.5.9.5 1.4 0 .5-.3 1-.6 1.3l-.5.5-.7.7c-.6.7-1.4 1-2.2 1zm-.4-.3h.3c.8 0 1.5-.3 2.1-.9.2-.3.5-.5.7-.8l.5-.5c.3-.3.5-.7.5-1.1 0-.4-.1-.9-.4-1.2l-.1-.1-2.2-2.2c-.3-.3-.7-.5-1.2-.6-.4 0-.9.2-1.2.5l-1.4 1.4H12c-.1-.1-.2-.1-.4-.2-.1-.1-.3-.1-.4-.2-1.2-.8-2.4-1.9-3.3-3.1-.5-.5-.9-1.1-1.2-1.8v-.1l.1-.1 1-1s.1-.1.2-.1l.1-.1c.3-.3.6-.8.6-1.2 0-.5-.2-.9-.6-1.2L7 2.9l-.3-.3-.1-.1-.7-.7c-.3-.3-.8-.5-1.2-.5-.5 0-.9.2-1.2.5L2.1 3.2c-.5.4-.7 1-.8 1.7 0 1 .1 2 .5 2.9.7 1.9 1.7 3.6 3 5.1 1.7 2.1 3.8 3.7 6.2 4.9 1.2.5 2.3.8 3.5.9zm.3-.6h-.3c-1.1-.1-2.2-.4-3.2-1C9 16 7 14.5 5.3 12.5 4.1 11 3.1 9.4 2.4 7.6c-.4-.9-.5-1.8-.5-2.7 0-.5.3-1 .6-1.3l1.4-1.4c.2-.2.5-.3.8-.3.3 0 .6.1.8.3l.6.6 1.6 1.6c.2.2.3.5.4.8-.1.3-.2.6-.4.8l-.5.5-.9.9c-.2.1-.3.4-.2.6.3.8.8 1.4 1.3 2.1 1 1.3 2.2 2.3 3.5 3.2.1.1.3.2.5.3.1.1.3.1.4.2.1 0 .2.1.3.1.2 0 .3-.1.4-.2l1.4-1.4c.2-.2.5-.4.8-.4.3 0 .6.2.8.4l2.2 2.2c.2.2.3.4.4.7 0 .3-.1.5-.2.8 0 .1-.1.1-.2.2-.1.2-.3.3-.5.5l-.8.8c-.4.4-.9.6-1.6.6zm0-.3c.6 0 1.1-.2 1.5-.6.2-.3.5-.5.8-.8l.5-.5.1-.1c.3-.3.2-.8-.1-1l-2.2-2.2c-.1-.2-.3-.3-.6-.3-.2 0-.4.1-.6.3L12.8 14c-.2.2-.4.3-.7.3-.2 0-.3 0-.4-.1-.1-.1-.3-.2-.4-.2-.2-.1-.3-.2-.5-.3-1.4-.9-2.6-2-3.6-3.3-.5-.6-1-1.4-1.3-2.1-.1-.3-.1-.7.2-1 .3-.4.6-.7.9-1l.4-.4c.2-.2.3-.4.3-.6 0-.2-.1-.4-.3-.6L5.9 3.1c-.2-.3-.4-.5-.6-.7-.2-.1-.4-.2-.6-.2-.2 0-.4.1-.6.3L2.7 3.8c-.3.3-.5.7-.5 1.2 0 .9.1 1.7.5 2.5.7 1.8 1.7 3.4 2.9 4.8 1.6 2 3.6 3.5 5.9 4.6 1 .5 2 .8 3.1.9h.2z"/></g></svg>