<svg xmlns="http://www.w3.org/2000/svg" width="141" height="141"><defs><filter id="1452" width="141" height="141" x="0" y="0" filterUnits="userSpaceOnUse"><feOffset/><feGaussianBlur result="blur" stdDeviation="12.5"/><feFlood flood-color="#8592a9" flood-opacity=".502"/><feComposite in2="blur" operator="in"/><feComposite in="SourceGraphic"/></filter><style>.cls-2{fill:#f9c030}</style></defs><g id="pin_map"><g filter="url(#1452)"><path fill="#fff" d="M33 0A33 33 0 110 33 33 33 0 0133 0z" transform="translate(37.5 37.5)"/></g><path d="M1135.489 483.88a3.406 3.406 0 106.811 0v-13.9h-6.811z" class="cls-2" transform="translate(-1059.988 -398.998)"/><path fill="#1d1d1d" d="M1113.812 448.845l-19.357.033a13.488 13.488 0 00-8.387 23.571l.039.035a10.411 10.411 0 006.9 2.617h6.961a3.412 3.412 0 003.366-3.928 3.479 3.479 0 00-3.472-2.884h-5.508a6 6 0 01-6.044-5.5 6.624 6.624 0 01-.013-.424 6.73 6.73 0 016.154-6.7l19.357-.011a3.406 3.406 0 100-6.811z" transform="translate(-1028.872 -386.8)"/><path d="M1115.468 426.948a3.406 3.406 0 00-3.406 3.406v18.131a3.406 3.406 0 006.811 0v-18.131a3.406 3.406 0 00-3.405-3.406z" class="cls-2" transform="translate(-1046.48 -374.249)"/><path d="M1088.712 437.237v-4.107a3.406 3.406 0 10-6.812 0v10.522a13.594 13.594 0 016.812-6.415z" class="cls-2" transform="translate(-1029.088 -375.839)"/></g></svg>