<svg xmlns="http://www.w3.org/2000/svg" width="20" height="20"><path fill="#101010" d="M16.6 3.5C14.1-.2 9-1.1 5.4 1.5c-.8.6-1.5 1.2-2 2-1.5 2.2-1.9 5-.9 7.4.3.7.7 1.4 1.2 1.9l5.9 6.9c.3.3.7.3 1 .1l.1-.1 5.9-6.9c.5-.6.9-1.2 1.2-1.9.7-2.5.4-5.2-1.2-7.4zm-.3 6.9c-.2.6-.5 1.1-.9 1.5L10 18.2l-5.3-6.3c-.4-.4-.7-1-.9-1.5-.8-2-.5-4.3.7-6.1 2.1-3 6.3-3.8 9.3-1.7.7.5 1.2 1 1.7 1.7 1.2 1.8 1.5 4.1.8 6.1z"/><path fill="#101010" d="M10 4.1C7.8 4.1 6.1 5.8 6.1 8s1.8 3.9 3.9 3.9 3.9-1.8 3.9-3.9c0-2.2-1.7-3.9-3.9-3.9zm0 6.4c-1.4 0-2.5-1.1-2.5-2.5S8.6 5.5 10 5.5s2.5 1.1 2.5 2.5-1.1 2.5-2.5 2.5z"/></svg>