<svg xmlns="http://www.w3.org/2000/svg" viewBox="0 0 32 32"><path d="M16.9 20.4h-.3c-.9.2-1.6.9-1.8 1.8-.2.2-.1.5.1.6.2.1.4.1.6 0 .9-.2 1.6-.9 1.8-1.8.1-.2.1-.4 0-.6-.2.1-.3 0-.4 0z"/><path d="M10.5 18l1.4 7.5c.1.3.3.5.6.5h7.1c.3 0 .5-.2.6-.5l1.4-7.5H10.5zm7.9 3.4c-.3 1.3-1.4 2.4-2.7 2.7-.2 0-.4.1-.5.1-.4 0-.8-.1-1.1-.4-.4-.5-.5-1.1-.3-1.7.3-1.3 1.4-2.4 2.7-2.7.8-.3 1.7.1 2 .9 0 .3 0 .7-.1 1.1zm1.3-12.6V7.3h1c.3 0 .6-.3.6-.6s-.3-.6-.6-.6h-1.6c-.3 0-.6.3-.6.6v1.4c-.8-.4-1.6-.6-2.5-.6-2.7 0-5 1.9-5.6 4.5h11.1c-.2-1.3-.9-2.4-1.8-3.2zm2.8 4.3h-13c-.3 0-.6.3-.6.6v2.5c0 .3.3.6.6.6h12.9c.3 0 .6-.3.6-.6v-2.5c0-.3-.2-.6-.5-.6z"/></svg>