<svg xmlns="http://www.w3.org/2000/svg" viewBox="0 0 148 80" width="148" height="80">
<style type="text/css">
	.st0{fill:#F9C030;}
	.st1{fill:#1D1D1D;}
</style>
<g>
	<g transform="translate(371 -28)">
		<path class="st0" d="M-291.6,63.4c0,2.1,1.7,3.7,3.7,3.7c2.1,0,3.7-1.7,3.7-3.7V48.2h-7.5v15.2H-291.6z"/>
		<path class="st1" d="M-281.5,38.3h-21.1c-8.1,0.4-14.5,7.3-14.1,15.4c0.2,4,2,7.8,4.9,10.4l0,0c2.1,1.9,4.8,2.9,7.6,2.9h7.6c2.1,0,3.7-1.7,3.7-3.7c0-0.2,0-0.4,0-0.6c-0.3-1.8-1.9-3.2-3.8-3.1h-6c-3.4,0-6.3-2.6-6.6-6c0-0.2,0-0.3,0-0.5c0-3.8,2.9-7,6.7-7.3h21.1c2.1,0,3.7-1.7,3.7-3.7C-277.8,40.1-279.5,38.3-281.5,38.3L-281.5,38.3z"/>
		<path class="st0" d="M-298.9,28c-2.1,0-3.7,1.7-3.7,3.7l0,0v19.8c0,2.1,1.7,3.7,3.7,3.7c2.1,0,3.7-1.7,3.7-3.7V31.7C-295,29.7-296.8,28-298.9,28L-298.9,28L-298.9,28z"/>
		<path class="st0" d="M-309,37.6v-4.5c0-2.1-1.6-3.8-3.7-3.8c-2,0-3.7,1.6-3.8,3.7v0.1v11.6C-315,41.5-312.4,39-309,37.6z"/>
	</g>
	<g transform="translate(349 43.617)">
		<path d="M-316.6,28.2h6.6v1.6h-2.4v6.5h-1.8v-6.6h-2.4V28.2z"/>
		<path d="M-308.8,28.2h5.7v1.5h-3.9v1.7h3.6v1.5h-3.6v1.8h4v1.5h-5.8V28.2z"/>
		<path d="M-300.3,36.2h-2l2.9-4.2l-2.7-3.8h2l1.8,2.6l1.8-2.6h2l-2.7,3.8l2.9,4.2h-2l-1.9-2.9L-300.3,36.2z"/>
		<path d="M-287.9,28.2h1.7v8.1h-1.7V33h-3.6v3.2h-1.7v-8h1.7v3.2h3.6V28.2z"/>
		<path d="M-284.4,33.8c-0.4-1-0.4-2.1,0-3.2c0.2-0.5,0.4-0.9,0.8-1.3s0.8-0.7,1.4-0.9c1.2-0.5,2.5-0.5,3.7,0c0.5,0.2,1,0.5,1.4,0.9c0.3,0.4,0.6,0.8,0.8,1.3c0.4,1,0.4,2.1,0,3.2c-0.2,0.5-0.4,0.9-0.8,1.3s-0.8,0.7-1.4,0.9c-1.2,0.5-2.5,0.5-3.7,0c-0.5-0.2-1-0.5-1.4-0.9C-283.9,34.7-284.1,34.3-284.4,33.8z M-278.5,34c0.9-1.1,0.9-2.6,0-3.7c-1-1-2.7-1-3.7,0c-0.9,1.1-0.9,2.7,0,3.7C-281.1,35-279.5,35-278.5,34z"/>
		<path d="M-273.3,28.2h5.5v8.1h-1.7v-6.6h-2.2c0,0.6-0.1,1.1-0.1,1.5c0,0.4-0.1,0.8-0.2,1.3c-0.1,0.4-0.1,0.8-0.2,1.3c-0.1,0.3-0.2,0.7-0.3,1c-0.1,0.3-0.3,0.6-0.5,0.8c-0.2,0.2-0.4,0.4-0.7,0.5c-0.3,0.1-0.6,0.2-0.9,0.2c-0.3,0-0.6,0-0.9-0.1v-1.5c0.2,0,0.4,0.1,0.6,0.1c0.1,0,0.3-0.1,0.4-0.1c0.1-0.1,0.3-0.2,0.3-0.4c0.1-0.3,0.2-0.5,0.3-0.7s0.2-0.5,0.2-0.7c0.1-0.3,0.1-0.6,0.1-0.8s0.1-0.6,0.1-1c0-0.4,0.1-0.7,0.1-1c0-0.3,0-0.6,0.1-1C-273.1,28.7-273.3,28.4-273.3,28.2L-273.3,28.2z"/>
		<path d="M-265.9,33.8c-0.4-1-0.4-2.1,0-3.2c0.2-0.5,0.4-0.9,0.8-1.3s0.8-0.7,1.4-0.9c1.2-0.5,2.5-0.5,3.7,0c0.5,0.2,1,0.5,1.4,0.9c0.3,0.4,0.6,0.8,0.8,1.3c0.4,1,0.4,2.1,0,3.2c-0.2,0.5-0.4,0.9-0.8,1.3s-0.8,0.7-1.4,0.9c-1.2,0.5-2.5,0.5-3.7,0c-0.5-0.2-1-0.5-1.4-0.9C-265.5,34.7-265.6,34.3-265.9,33.8z M-260,34c0.9-1.1,0.9-2.6,0-3.7c-1-1-2.7-1-3.7,0c-0.9,1.1-0.9,2.6,0,3.7C-262.6,35-261,35-260,34z"/>
		<path d="M-254.3,36.2h-1.7v-8h5.6v1.6h-3.9V36.2z"/>
		<path d="M-241.9,36.2h-1.7v-4.1c0-0.4,0-0.8,0-1.1l-3.8,5.3h-1.6v-8.1h1.7v4.2c0,0.4,0,0.8,0,1.1l3.8-5.3h1.6V36.2z"/>
		<path d="M-232.9,36.2h-1.7v-4.1c0-0.4,0-0.8,0-1.1l-3.8,5.3h-1.6v-8.1h1.7v4.2c0,0.4,0,0.8,0,1.1l3.8-5.3h1.6V36.2z"/>
	</g>
	<g transform="translate(317 26.944)">
		<path d="M-311.4,28.2h1.7v8.1h-1.7V33h-3.6v3.2h-1.7v-8h1.7v3.2h3.6V28.2z"/>
		<path d="M-307.8,33.8c-0.4-1-0.4-2.1,0-3.2c0.2-0.5,0.4-0.9,0.8-1.3c0.4-0.4,0.8-0.7,1.4-0.9c1.2-0.5,2.5-0.5,3.7,0c0.5,0.2,1,0.5,1.4,0.9c0.3,0.4,0.6,0.8,0.8,1.3c0.4,1,0.4,2.1,0,3.2c-0.2,0.5-0.4,0.9-0.8,1.3c-0.4,0.4-0.8,0.7-1.4,0.9c-1.2,0.5-2.5,0.5-3.7,0c-0.5-0.2-1-0.5-1.4-0.9C-307.4,34.7-307.6,34.3-307.8,33.8z M-302,34c0.9-1,0.9-2.6,0-3.7c-1-1-2.7-1-3.7,0c-0.9,1.1-0.9,2.6,0,3.7C-304.5,35-303,35-302,34z"/>
		<path d="M-298,28.2h3.5c0.7,0,1.4,0.1,2.1,0.5c0.5,0.3,0.8,0.9,0.7,1.5c0.1,0.8-0.4,1.5-1.2,1.8c0.4,0.1,0.8,0.4,1.1,0.7c0.3,0.3,0.5,0.8,0.5,1.3c0,0.4-0.1,0.8-0.3,1.1c-0.2,0.3-0.5,0.5-0.8,0.7c-0.3,0.2-0.7,0.3-1,0.3c-0.4,0.1-0.7,0.1-1.1,0.1h-3.5V28.2z M-293,33.8c0-0.7-0.5-1-1.4-1h-1.8v2.1h1.7c0.4,0,0.7-0.1,1.1-0.2C-293.1,34.4-293,34.1-293,33.8L-293,33.8z M-293.4,30.5c0-0.6-0.4-0.9-1.2-0.9h-1.6v1.8h1.7c0.3,0,0.6-0.1,0.8-0.2C-293.5,31-293.4,30.8-293.4,30.5L-293.4,30.5z"/>
		<path d="M-286.6,36.2h-3v-8h1.7v2.6h1.3c2.3,0,3.5,0.9,3.5,2.7C-283.1,35.3-284.4,36.2-286.6,36.2L-286.6,36.2z M-288,32.3v2.4h1.4c1.1,0,1.6-0.4,1.6-1.2c0-0.8-0.5-1.2-1.6-1.2H-288z M-280.9,36.2h-1.7v-8h1.7V36.2z"/>
		<path d="M-278.8,28.2h5.7v1.5h-4v1.7h3.6v1.5h-3.6v1.8h4v1.5h-5.7V28.2z"/>
		<path d="M-269,32.3c0-0.7,0.1-1.3,0.4-1.9c0.2-0.5,0.6-1,1-1.4c0.4-0.3,0.9-0.6,1.4-0.8c0.5-0.2,1-0.3,1.6-0.3c0.8,0,1.6,0.2,2.3,0.5V30c-0.6-0.4-1.3-0.7-2-0.6c-0.7,0-1.4,0.2-2,0.7c-0.6,0.5-0.9,1.3-0.8,2.1c0,0.4,0.1,0.8,0.2,1.1c0.1,0.3,0.4,0.6,0.7,0.8c0.3,0.2,0.6,0.4,0.9,0.5c0.3,0.1,0.7,0.2,1,0.2c0.8,0,1.5-0.2,2.1-0.7v1.7c-0.7,0.3-1.5,0.5-2.3,0.5c-0.5,0-1.1-0.1-1.6-0.3c-0.5-0.2-1-0.4-1.4-0.7s-0.8-0.8-1-1.3C-268.9,33.5-269,32.9-269,32.3L-269,32.3z"/>
		<path d="M-261.5,28.2h6.7v1.6h-2.5v6.5h-1.7v-6.6h-2.5V28.2z"/>
		<path d="M-253.4,28.2h3c2.3,0,3.5,0.9,3.5,2.7s-1.2,2.7-3.5,2.7h-1.3v2.6h-1.7V28.2z M-248.8,30.9c0-0.8-0.5-1.2-1.6-1.2h-1.4v2.4h1.4C-249.3,32.1-248.8,31.7-248.8,30.9L-248.8,30.9z"/>
		<path d="M-245.6,33.8c-0.4-1-0.4-2.1,0-3.2c0.2-0.5,0.4-0.9,0.8-1.3c0.4-0.4,0.8-0.7,1.4-0.9c1.2-0.5,2.5-0.5,3.7,0c0.5,0.2,1,0.5,1.4,0.9c0.3,0.4,0.6,0.8,0.8,1.3c0.4,1,0.4,2.1,0,3.2c-0.2,0.5-0.4,0.9-0.8,1.3c-0.4,0.4-0.8,0.7-1.4,0.9c-1.2,0.5-2.5,0.5-3.7,0c-0.5-0.2-1-0.5-1.4-0.9C-245.3,34.7-245.6,34.3-245.6,33.8z M-239.9,34c0.9-1.1,0.9-2.6,0-3.7c-1-1-2.7-1-3.7,0c-0.9,1.1-0.9,2.6,0,3.7C-242.6,35-240.9,35-239.9,34z"/>
		<path d="M-228.8,36.2h-1.7v-4.1c0-0.4,0-0.8,0-1.1l-3.8,5.3h-1.6v-8.1h1.7v4.2c0,0.4,0,0.8,0,1.1l3.8-5.3h1.6V36.2z"/>
		<path d="M-227.4,28.2h6.7v1.6h-2.5v6.5h-1.7v-6.6h-2.5V28.2z"/>
		<path d="M-219.4,28.2h5.7v1.5h-3.9v1.7h3.6v1.5h-3.6v1.8h4v1.5h-5.7L-219.4,28.2L-219.4,28.2z"/>
		<path d="M-210.6,28.2h5.5v8.1h-1.7v-6.6h-2.2c0,0.6-0.1,1.1-0.1,1.5s-0.1,0.8-0.2,1.3c-0.1,0.4-0.1,0.8-0.2,1.3c-0.1,0.3-0.2,0.7-0.3,1s-0.3,0.6-0.5,0.8s-0.4,0.4-0.7,0.5c-0.3,0.1-0.6,0.2-0.9,0.2s-0.6,0-0.9-0.1v-1.5c0.2,0,0.4,0.1,0.6,0.1c0.1,0,0.3-0.1,0.4-0.1c0.1-0.1,0.3-0.2,0.3-0.4c0.1-0.2,0.2-0.4,0.3-0.6c0.1-0.2,0.2-0.5,0.2-0.7c0-0.4,0-0.7,0-1c0-0.3,0.1-0.6,0.1-0.9l0.1-1c0-0.2,0-0.6,0.1-1C-210.7,28.7-210.6,28.4-210.6,28.2L-210.6,28.2z"/>
		<path d="M-200.1,36.2h-3v-8h1.7v2.6h1.3c2.3,0,3.5,0.9,3.5,2.7C-196.6,35.3-197.8,36.2-200.1,36.2L-200.1,36.2z M-201.4,32.3v2.4h1.4c1.1,0,1.6-0.4,1.6-1.2c0-0.8-0.5-1.2-1.6-1.2H-201.4z"/>
		<path d="M-189.9,28.2h1.7v8.1h-1.7V33h-3.6v3.2h-1.7v-8h1.7v3.2h3.6V28.2z"/>
		<path d="M-183.1,36.2h-3v-8h1.7v2.6h1.3c2.3,0,3.5,0.9,3.5,2.7C-179.6,35.3-180.8,36.2-183.1,36.2L-183.1,36.2z M-184.4,32.3v2.4h1.4c1.1,0,1.6-0.4,1.6-1.2c0-0.8-0.5-1.2-1.6-1.2H-184.4z M-177.2,36.2h-1.7v-8h1.7V36.2z"/>
		<path d="M-175.2,28.2h5.7v1.5h-3.9v1.7h3.6v1.5h-3.6v1.8h4v1.5h-5.7L-175.2,28.2z"/>
	</g>
</g>
</svg>
