<svg xmlns="http://www.w3.org/2000/svg" viewBox="0 0 230 45" width="230" height="45">
<style type="text/css">
	.st0{fill:#F9C030;}
	.st1{fill:#1D1D1D;}
</style>
<g>
	<g>
		<path class="st0" d="M29,40.6c0,2.4,1.9,4.3,4.3,4.3s4.3-1.9,4.3-4.3l0,0V23.1H29V40.6z"/>
		<path class="st1" d="M40.9,11.8H16.5C7.1,12.2-0.2,20.1,0.2,29.5c0.2,4.6,2.3,9,5.7,12H6c2.4,2.1,5.5,3.3,8.7,3.3h8.8c2.4,0,4.3-1.9,4.3-4.3c0-0.2,0-0.4,0-0.6c-0.4-2.1-2.2-3.7-4.4-3.6h-6.9c-4,0-7.3-3-7.6-6.9c0-0.2,0-0.4,0-0.5c0-4.4,3.4-8.1,7.8-8.4h24.4c2.4,0,4.3-1.9,4.3-4.3S43.2,11.8,40.9,11.8L40.9,11.8L40.9,11.8z"/>
		<path class="st0" d="M20.8,0.1c-2.4,0-4.3,1.9-4.3,4.3v22.9c0,2.4,1.9,4.3,4.3,4.3s4.3-1.9,4.3-4.3V4.4C25.1,2,23.1,0.1,20.8,0.1L20.8,0.1z"/>
		<path class="st0" d="M9,11V5.8c0-2.4-1.9-4.3-4.3-4.3S0.4,3.4,0.4,5.8v13.3C2.2,15.5,5.2,12.6,9,11z"/>
	</g>
	<g transform="translate(4.483)">
		<g transform="translate(318.517 30.638)">
			<path d="M-262.8,2.1h7.7v1.8h-2.9v7.5h-2V3.9h-2.8V2.1z"/>
			<path d="M-253.6,2.1h6.5v1.7h-4.6v2h4.2v1.7h-4.2v2.1h4.7v1.8h-6.6V2.1z"/>
			<path d="M-243.9,11.4h-2.3l3.3-4.8l-3.1-4.5h2.3l2.1,3.1l2-3.1h2.3l-3.1,4.5l3.3,4.8h-2.3l-2.2-3.4L-243.9,11.4z"/>
			<path d="M-229.7,2.1h2v9.3h-2V7.7h-4.2v3.7h-2V2.1h2v3.7h4.2V2.1z"/>
			<path d="M-225.5,8.6c-0.4-1.2-0.4-2.5,0-3.6c0.2-0.6,0.5-1.1,0.9-1.5c0.4-0.5,1-0.8,1.6-1.1c1.4-0.5,2.9-0.5,4.3,0c0.6,0.2,1.1,0.6,1.6,1.1c0.4,0.4,0.7,1,0.9,1.5c0.4,1.2,0.4,2.5,0,3.6c-0.2,0.6-0.5,1.1-0.9,1.5c-0.4,0.5-1,0.8-1.6,1.1c-1.4,0.5-2.9,0.5-4.3,0c-0.6-0.2-1.1-0.6-1.6-1.1C-225,9.7-225.3,9.2-225.5,8.6z M-218.8,8.9c1-1.2,1-3,0-4.3c-1.2-1.1-3.1-1.1-4.3,0c-1,1.2-1,3,0,4.3C-221.9,10-220,10-218.8,8.9z"/>
			<path d="M-212.8,2.1h6.4v9.3h-2V3.9h-2.5c-0.1,0.7-0.1,1.2-0.1,1.7c0,0.4-0.1,1-0.2,1.5s-0.2,1-0.3,1.4c-0.1,0.4-0.2,0.8-0.4,1.2c-0.1,0.3-0.3,0.7-0.6,1c-0.2,0.2-0.5,0.4-0.8,0.6c-0.3,0.2-0.6,0.2-1,0.2c-0.4,0-0.7-0.1-1-0.2V9.5c0.2,0.1,0.4,0.1,0.6,0.1s0.3-0.1,0.5-0.2s0.3-0.3,0.4-0.5c0.1-0.2,0.2-0.4,0.3-0.6c0.1-0.3,0.2-0.6,0.2-0.9c0.1-0.4,0.1-0.7,0.2-1c0.1-0.3,0.1-0.6,0.1-1.1s0.1-0.8,0.1-1.1c0-0.3,0-0.7,0.1-1.2C-212.8,2.7-212.8,2.4-212.8,2.1L-212.8,2.1z"/>
			<path d="M-204.3,8.6c-0.4-1.2-0.4-2.5,0-3.6c0.2-0.6,0.5-1.1,0.9-1.5c0.4-0.5,1-0.8,1.6-1.1c1.4-0.5,2.9-0.5,4.3,0c0.6,0.2,1.1,0.6,1.6,1.1c0.4,0.4,0.7,1,0.9,1.5c0.4,1.2,0.4,2.5,0,3.6c-0.2,0.6-0.5,1.1-0.9,1.5c-0.4,0.5-1,0.8-1.6,1.1c-1.4,0.5-2.9,0.5-4.3,0c-0.6-0.2-1.1-0.6-1.6-1.1C-203.8,9.7-204.1,9.2-204.3,8.6z M-197.5,8.9c1-1.2,1-3,0-4.3c-1.2-1.1-3.1-1.1-4.3,0c-1,1.2-1,3,0,4.3C-200.6,10-198.7,10-197.5,8.9z"/>
			<path d="M-190.9,11.4h-2V2.1h6.5v1.8h-4.5V11.4z"/>
			<path d="M-176.8,11.4h-2V6.6c0-0.5,0-0.9,0-1.3l-4.3,6.1h-1.9V2.1h2v4.8c0,0.5,0,0.9,0,1.3l4.3-6.1h1.9V11.4z"/>
			<path d="M-166.3,11.4h-2V6.6c0-0.5,0-0.9,0-1.3l-4.3,6.1h-1.9V2.1h2v4.8c0,0.5,0,0.9,0,1.3l4.3-6.1h1.9V11.4z"/>
		</g>
	</g>
	<g transform="translate(322.177 28.638)">
		<path d="M-255.8-14.8h2v9.3h-2v-3.7h-4.2v3.7h-2v-9.3h2v3.8h4.2V-14.8z"/>
		<path d="M-251.7-8.3c-0.4-1.2-0.4-2.5,0-3.6c0.2-0.6,0.5-1.1,0.9-1.5c0.4-0.5,1-0.8,1.6-1.1c1.4-0.5,2.9-0.5,4.3,0c0.6,0.2,1.1,0.6,1.6,1.1c0.4,0.4,0.7,1,0.9,1.5c0.4,1.2,0.4,2.5,0,3.6c-0.2,0.6-0.5,1.1-0.9,1.5c-0.4,0.5-1,0.8-1.6,1.1c-1.4,0.5-2.9,0.5-4.3,0c-0.6-0.2-1.1-0.6-1.6-1.1C-251.2-7.2-251.5-7.7-251.7-8.3z M-245-8c1-1.2,1-3,0-4.3c-1.2-1.1-3.1-1.1-4.3,0c-1,1.2-1,3,0,4.3C-248.1-6.8-246.2-6.8-245-8z"/>
		<path d="M-240.4-14.8h4.1c0.8,0,1.7,0.2,2.4,0.6c0.6,0.4,0.9,1.1,0.8,1.8c0.1,0.9-0.5,1.8-1.4,2c0.5,0.2,0.9,0.4,1.3,0.8c0.4,0.4,0.5,1,0.5,1.5s-0.1,0.9-0.3,1.3c-0.3,0.4-0.6,0.7-1,0.8c-0.4,0.2-0.8,0.3-1.2,0.4c-0.4,0.1-0.8,0.1-1.3,0.1h-4L-240.4-14.8z M-234.7-8.3c0-0.8-0.5-1.2-1.6-1.2h-2.1v2.4h2c0.4,0,0.9-0.1,1.2-0.3C-234.9-7.5-234.7-7.9-234.7-8.3L-234.7-8.3z M-235.1-12.1c0-0.7-0.5-1.1-1.4-1.1h-1.9v2.2h2c0.3,0,0.7-0.1,0.9-0.3C-235.2-11.5-235.1-11.8-235.1-12.1L-235.1-12.1z"/>
		<path d="M-227.4-5.5h-3.5v-9.3h2v3h1.5c2.7,0,4,1.1,4,3.1C-223.4-6.5-224.8-5.5-227.4-5.5L-227.4-5.5z M-228.9-10v2.7h1.6c1.3,0,1.9-0.5,1.9-1.4s-0.6-1.4-1.9-1.4h-1.6V-10z M-220.7-5.5h-2v-9.3h2V-5.5z"/>
		<path d="M-218.4-14.8h6.5v1.8h-4.6v2h4.2v1.7h-4.2v2.1h4.6v1.8h-6.6L-218.4-14.8L-218.4-14.8z"/>
		<path d="M-207.1-10c0-0.8,0.1-1.5,0.4-2.2c0.3-0.6,0.6-1.1,1.1-1.6c0.5-0.4,1-0.7,1.6-0.9c0.6-0.2,1.2-0.3,1.8-0.3c0.9,0,1.8,0.2,2.7,0.6v1.9c-0.7-0.5-1.5-0.8-2.3-0.7c-0.8,0-1.7,0.3-2.3,0.8c-0.7,0.6-1,1.5-1,2.4c0,0.5,0.1,0.9,0.3,1.3c0.2,0.4,0.5,0.7,0.8,0.9s0.7,0.4,1,0.5c0.4,0.1,0.8,0.2,1.2,0.2c0.9,0.1,1.8-0.2,2.4-0.7v1.9c-0.8,0.4-1.8,0.6-2.7,0.6c-0.6,0-1.2-0.1-1.8-0.3c-0.6-0.2-1.1-0.5-1.6-0.8c-0.5-0.4-0.9-0.9-1.2-1.5C-207-8.6-207.1-9.3-207.1-10L-207.1-10z"/>
		<path d="M-198.4-14.8h7.7v1.8h-2.9v7.5h-2V-13h-2.9L-198.4-14.8z"/>
		<path d="M-189.2-14.8h3.5c2.7,0,4,1,4,3.1s-1.3,3.1-4,3.1h-1.5v3.1h-2V-14.8z M-183.7-11.6c0-0.9-0.6-1.4-1.9-1.4h-1.6v2.7h1.6C-184.4-10.3-183.7-10.7-183.7-11.6z"/>
		<path d="M-180.2-8.3c-0.4-1.2-0.4-2.5,0-3.6c0.2-0.6,0.5-1.1,0.9-1.6s1-0.8,1.6-1.1c1.4-0.5,2.9-0.5,4.3,0c0.6,0.2,1.1,0.6,1.6,1.1c0.4,0.4,0.7,1,0.9,1.5c0.4,1.2,0.4,2.5,0,3.6c-0.2,0.6-0.5,1.1-0.9,1.5c-0.4,0.5-1,0.8-1.6,1.1c-1.4,0.5-2.9,0.5-4.3,0c-0.6-0.2-1.1-0.6-1.6-1.1C-179.7-7.2-180-7.7-180.2-8.3z M-173.5-8c1-1.2,1-3,0-4.3c-1.2-1.1-3.1-1.1-4.3,0c-1,1.2-1,3,0,4.3C-176.6-6.8-174.7-6.8-173.5-8z"/>
		<path d="M-160.7-5.5h-2v-4.8c0-0.5,0-0.9,0-1.3l-4.3,6.1h-1.9v-9.3h2v4.8c0,0.5,0,0.9,0,1.3l4.3-6.1h1.9V-5.5z"/>
		<path d="M-159.2-14.8h7.7v1.8h-2.9v7.5h-2V-13h-2.9L-159.2-14.8z"/>
		<path d="M-150-14.8h6.5v1.8h-4.6v2h4.2v1.7h-4.2v2.1h4.6v1.8h-6.5V-14.8z"/>
		<path d="M-139.9-14.8h6.4v9.3h-2V-13h-2.5c-0.1,0.7-0.1,1.2-0.1,1.7s-0.1,1-0.2,1.5c-0.1,0.5-0.2,1-0.3,1.4c-0.1,0.4-0.2,0.8-0.4,1.2c-0.1,0.3-0.3,0.7-0.6,1c-0.2,0.2-0.5,0.4-0.8,0.6c-0.3,0.2-0.6,0.2-1,0.2c-0.4,0-0.7-0.1-1-0.2v-1.7c0.2,0.1,0.4,0.1,0.6,0.1s0.3-0.1,0.5-0.2s0.3-0.3,0.4-0.5c0.1-0.2,0.2-0.4,0.3-0.6c0.1-0.3,0.2-0.6,0.2-0.9c0.1-0.4,0.1-0.7,0.2-1c0-0.3,0.1-0.6,0.1-1.1s0.1-0.8,0.1-1.1s0-0.7,0.1-1.2C-139.8-14.3-139.9-14.5-139.9-14.8L-139.9-14.8z"/>
		<path d="M-127.7-5.5h-3.5v-9.3h2v3h1.5c2.7,0,4,1.1,4,3.1C-123.7-6.5-125-5.5-127.7-5.5L-127.7-5.5z M-129.2-10v2.7h1.6c1.3,0,1.9-0.5,1.9-1.4s-0.6-1.4-1.9-1.4h-1.6V-10z"/>
		<path d="M-115.9-14.8h2v9.3h-2v-3.7h-4.1v3.7h-2v-9.3h2v3.8h4.2L-115.9-14.8L-115.9-14.8z"/>
		<path d="M-108-5.5h-3.5v-9.3h2v3h1.5c2.7,0,4,1.1,4,3.1C-104-6.5-105.4-5.5-108-5.5z M-109.6-10v2.7h1.6c1.3,0,1.9-0.5,1.9-1.4s-0.6-1.4-1.9-1.4h-1.6V-10z M-101.3-5.5h-2v-9.3h2V-5.5z"/>
		<path d="M-99-14.8h6.5v1.8H-97v2h4.2v1.7H-97v2.1h4.6v1.8H-99V-14.8z"/>
	</g>
</g>
</svg>
