<svg xmlns="http://www.w3.org/2000/svg" width="50" height="50"><defs><style>.cls-2{stroke:#fff;stroke-width:.5px}</style></defs><g id="kindergarten" transform="translate(.5 .5)"><g id="Сгруппировать_1322"><path id="Контур_1460" d="M49 24.915v-3.98l-6.455-8.078H28.6l-2.66-3.17V7.975h8.291V0H23.064v9.686l-2.66 3.17H6.455L0 20.934v3.98h2.648v21.215H0V49h49v-2.871h-2.648V24.915zM25.936 2.871h5.42V5.1h-5.42zM2.871 21.941l4.965-6.213H18l-5.3 6.316H2.871zm20.193 24.188h-3.253v-9.985h3.254zm6.125 0h-3.253v-9.985h3.254zm14.292 0h-11.42V33.273H16.939v12.856H5.519V24.915h8.516L24.5 12.442l10.465 12.473h8.516v21.214zm2.648-24.085H36.3L31 15.727h10.164l4.965 6.213z" class="cls-2"/><path id="Прямоугольник_1846" d="M0 0h2.871v4.083H0z" class="cls-2" transform="translate(9.73 29.604)"/><path id="Прямоугольник_1847" d="M0 0h2.871v4.083H0z" class="cls-2" transform="translate(9.793 37.771)"/><path id="Прямоугольник_1848" d="M0 0h2.871v4.083H0z" class="cls-2" transform="translate(36.399 29.604)"/><path id="Прямоугольник_1849" d="M0 0h2.871v4.083H0z" class="cls-2" transform="translate(36.335 37.771)"/><path id="Контур_1461" d="M213.5 209a4.5 4.5 0 104.5 4.5 4.5 4.5 0 00-4.5-4.5zm0 6.125a1.627 1.627 0 111.627-1.627 1.629 1.629 0 01-1.627 1.627z" class="cls-2" transform="translate(-188.998 -188.998)"/></g></g></svg>