<svg xmlns="http://www.w3.org/2000/svg" width="50" height="50"><path d="M49.9 31.034l-3.906-7.812a.976.976 0 00-.873-.54h-4.526L27.071 9.159a2.911 2.911 0 00-1.095-.69V6.348h4.883a.977.977 0 00.819-1.509L30.6 3.174l1.082-1.665A.977.977 0 0030.859 0H25a.977.977 0 00-.977.977v7.492a2.913 2.913 0 00-1.095.69L9.405 22.682H4.883a.976.976 0 00-.873.54L.1 31.034a.977.977 0 00.874 1.413h.977V47.07a.977.977 0 00.977.977H11.6v.977a.977.977 0 00.977.977h24.851a.977.977 0 00.977-.977v-.977h8.665a.977.977 0 00.977-.977V32.448h.977a.977.977 0 00.874-1.413zM25.977 1.953h3.084l-.447.689a.977.977 0 000 1.064l.447.689h-3.084zm21.466 28.541H38.4v-2.553a2.969 2.969 0 00.4.028 2.929 2.929 0 002.929-2.929 2.97 2.97 0 00-.028-.4h2.8zM5.487 24.635h2.8a2.969 2.969 0 00-.028.4 2.929 2.929 0 002.929 2.929 2.97 2.97 0 00.4-.028v2.554H2.557zm6.113 7.813v9.74H3.906v-9.74zM3.906 46.094V44.14H11.6v1.953zm15.234 0h11.719v1.953H19.141zm2.441-9.766h2.441v7.812h-2.44zm6.836 7.812h-2.44v-7.812h2.441v7.812zm4.395 3.906v-1.952a1.955 1.955 0 00-1.953-1.953h-.488v-7.813a1.955 1.955 0 00-1.953-1.953h-6.836a1.955 1.955 0 00-1.953 1.953v7.812h-.488a1.955 1.955 0 00-1.953 1.953v1.953h-3.64V26.825L16.369 24a.977.977 0 10-1.381-1.381l-3.107 3.111a.976.976 0 11-1.381-1.381L24.31 10.54a.976.976 0 011.381 0L39.5 24.349a.976.976 0 01-1.381 1.381L25.691 13.3a.977.977 0 00-1.381 0l-3.11 3.109a.977.977 0 001.381 1.381L25 15.373l11.452 11.452v21.222zm13.281-1.953H38.4V44.14h7.689zm0-13.646v9.74H38.4v-9.74z"/><path d="M25 25.746a3.174 3.174 0 10-3.174-3.174A3.177 3.177 0 0025 25.746zm0-4.395a1.221 1.221 0 11-1.221 1.221A1.222 1.222 0 0125 21.351zm4.395 9.143h-8.789a.977.977 0 100 1.953h8.789a.977.977 0 000-1.953zM18.786 19.23a.977.977 0 10.977.977.976.976 0 00-.978-.977z"/></svg>