<svg xmlns="http://www.w3.org/2000/svg" width="50" height="50" viewBox="0 0 50 50">
    <g>
        <g>
            <path d="M104.772 247.005a.971.971 0 0 0-.675 1.668 3.339 3.339 0 0 0 4.6 0 .97.97 0 1 0-1.349-1.4 1.383 1.383 0 0 1-1.906 0 .967.967 0 0 0-.67-.268z" transform="translate(0 -3.56) translate(0 3.56) translate(-93.728 -223.378)"/>
            <path d="M49.662 121.525a.97.97 0 0 0-.638-1.155c-2.3-.76-5.04-2.472-5.04-6.317v-2.036c0-3.14-.719-5.6-2.138-7.3a7.222 7.222 0 0 0-5.771-2.524 7.2 7.2 0 0 0-5.665 2.514 11.113 11.113 0 0 0-2.244 7.312v2.036a5.928 5.928 0 0 1-2.487 5.035 6.208 6.208 0 0 0-7.028 3.9c-.259-.073-1.617-.439-2.018-.556v-.646a8.326 8.326 0 0 0 4.357-7.313v-3.855a8.32 8.32 0 1 0-16.64 0v3.854a8.325 8.325 0 0 0 4.357 7.313v.646c-.4.117-.817.23-1.248.346-3.287.886-7.379 1.989-7.461 7.005v8.506a.971.971 0 0 0 .971.971h13.125V140.648a.971.971 0 0 0 .971.971H20.1a.971.971 0 0 0 0-1.941h-4.065v-.578a5.66 5.66 0 0 1 .275-1.776c.61-1.749 2.19-2.215 4.342-2.849l.306-.09a3.656 3.656 0 0 0 3.43 2.4 3.7 3.7 0 0 0 3.589-2.4l.3.088c2.747.81 4.561 1.345 4.617 4.626v.581H18.816v1.941h15.046a.971.971 0 0 0 .971-.971V139.263h12.946a.97.97 0 0 0 .971-.971V129.8v-.016a5.946 5.946 0 0 0-1.755-4.416c1.4-.655 2.167-1.824 2.667-3.844zm-13.586-17.393a5.276 5.276 0 0 1 4.278 1.824 8.736 8.736 0 0 1 1.671 5.285c-1.8.312-3.913.06-5.083-2.253a.98.98 0 0 0-1.732 0c-1.169 2.312-3.284 2.565-5.081 2.254.225-4.468 2.411-7.109 5.947-7.109zm-5.968 9.07a8.728 8.728 0 0 0 1.2.087 6 6 0 0 0 4.763-2.1 6 6 0 0 0 4.763 2.1 8.731 8.731 0 0 0 1.2-.087v.851a5.968 5.968 0 1 1-11.935 0v-.853zm7.99 8.5v1.45a2.021 2.021 0 0 1-4.042 0V121.7a7.9 7.9 0 0 0 4.042 0zm-8.9-3.754a7.971 7.971 0 0 0 2.92 2.95v1.539c-.4.118-.822.231-1.255.348l-.606.165a6.258 6.258 0 0 0-2.53-3.048 7.708 7.708 0 0 0 1.473-1.957zm-8.688 5.628a4.268 4.268 0 0 1 8.147.8 9.72 9.72 0 0 0-8.384 0 4.253 4.253 0 0 1 .237-.8zM6.293 110.62a6.379 6.379 0 1 1 12.758 0v1c-2.551.085-5.767-.218-8.137-1.841a.971.971 0 0 0-1.32.213 4.249 4.249 0 0 1-3.3 1.518v-.894zm0 3.854v-1.006a6.773 6.773 0 0 0 4.252-1.629 16.563 16.563 0 0 0 8.506 1.728v.908a6.379 6.379 0 0 1-12.758 0zm8.4 8.069v.609a2.021 2.021 0 0 1-4.042 0v-.606a8.313 8.313 0 0 0 4.043 0zm6.043 9.876c-.213.065-.425.128-.635.189-2.4.707-5.066 1.494-5.809 4.711H7.135v-3.927a.971.971 0 0 0-1.941 0v3.927H1.941v-7.511c.058-3.309 2.316-4.156 6.025-5.155.312-.084.63-.17.946-.26a3.961 3.961 0 0 0 7.521 0c.316.089 1.544.423 1.828.5 0 .093-.007.187-.007.281v1.372a6.2 6.2 0 0 0 2.484 4.965zm5.511.709a1.786 1.786 0 0 1-3.569 0v-.628a5.969 5.969 0 0 0 .725.171 6.2 6.2 0 0 0 1.941.028 5.966 5.966 0 0 0 .9-.2zm.516-2.981a4.268 4.268 0 0 1-6.566-3.5 7.8 7.8 0 0 1 8.533 0 4.271 4.271 0 0 1-1.966 3.501zm20.045 7.172h-3.252v-3.926a.971.971 0 1 0-1.941 0v3.926h-6.983c-.743-3.217-3.414-4-5.808-4.711-.21-.061-.422-.124-.635-.189v-.9a6.207 6.207 0 0 0 2.486-4.968V125.2c0-.117 0-.234-.01-.35.234-.065.469-.128.7-.19.315-.085.634-.171.952-.261a3.961 3.961 0 0 0 7.52 0c.316.089.633.175.946.259 3.71 1 5.967 1.846 6.025 5.155v7.511zm-1.908-13.34a22.315 22.315 0 0 0-3.608-1.2c-.431-.116-.848-.228-1.249-.346v-1.54a7.971 7.971 0 0 0 2.912-2.94 8.932 8.932 0 0 0 4.586 3.933 2.781 2.781 0 0 1-2.641 2.093z" transform="translate(0 -3.56) translate(0 3.56) translate(0 -92.619)"/>
            <path d="M189.827 15.865a.971.971 0 0 0 1.348 0l5.136-4.957a4.275 4.275 0 0 0-5.81-6.271 4.275 4.275 0 0 0-5.81 6.271zm-3.85-9.655a2.321 2.321 0 0 1 1.64-.709h.043a2.313 2.313 0 0 1 1.619.651l.547.528a.971.971 0 0 0 1.348 0l.548-.529a2.346 2.346 0 0 1 3.3.058 2.338 2.338 0 0 1-.061 3.3l-4.461 4.309-4.462-4.307a2.34 2.34 0 0 1-.061-3.3z" transform="translate(0 -3.56) translate(0 3.56) translate(-165.588 -3.56)"/>
        </g>
    </g>
</svg>
