<svg xmlns="http://www.w3.org/2000/svg" width="34" height="34" viewBox="0 0 34 34">
    <g>
        <g>
            <path d="M80.572 29.814l-4.3-7.45a3.847 3.847 0 0 0 1.338-2.423 2.5 2.5 0 0 1 .953-1.652 3.857 3.857 0 0 0 1.205-4.5 2.5 2.5 0 0 1 0-1.907 3.857 3.857 0 0 0-1.205-4.5 2.5 2.5 0 0 1-.953-1.652 3.857 3.857 0 0 0-3.293-3.292 2.5 2.5 0 0 1-1.651-.953 3.857 3.857 0 0 0-4.5-1.205 2.5 2.5 0 0 1-1.907 0 3.857 3.857 0 0 0-4.5 1.205 2.5 2.5 0 0 1-1.652.953 3.857 3.857 0 0 0-3.292 3.293 2.5 2.5 0 0 1-.953 1.652 3.857 3.857 0 0 0-1.205 4.5 2.5 2.5 0 0 1 0 1.907 3.857 3.857 0 0 0 1.205 4.5 2.5 2.5 0 0 1 .953 1.651 3.847 3.847 0 0 0 1.366 2.447L53.9 29.814a.664.664 0 0 0 .747.974l3.737-1 1 3.721a.664.664 0 0 0 1.217.16l4.627-8.014a3.815 3.815 0 0 0 1.038-.262 2.5 2.5 0 0 1 1.907 0 3.817 3.817 0 0 0 1.083.267l4.624 8.008a.664.664 0 0 0 1.217-.16l1-3.721 3.737 1a.664.664 0 0 0 .747-.974zm-20.325 1.8l-.754-2.814a.664.664 0 0 0-.813-.47l-2.83.758 3.49-6.044a3.82 3.82 0 0 0 .772.188 2.5 2.5 0 0 1 1.652.953 3.839 3.839 0 0 0 2 1.344zm5.51-7.452a2.525 2.525 0 0 1-2.944-.789 3.824 3.824 0 0 0-2.523-1.457 2.525 2.525 0 0 1-2.155-2.155 3.824 3.824 0 0 0-1.457-2.523 2.525 2.525 0 0 1-.789-2.944 3.823 3.823 0 0 0 0-2.913 2.525 2.525 0 0 1 .789-2.944 3.824 3.824 0 0 0 1.457-2.523 2.525 2.525 0 0 1 2.155-2.155A3.823 3.823 0 0 0 62.813 2.3a2.522 2.522 0 0 1 2.944-.789 3.824 3.824 0 0 0 2.913 0 2.525 2.525 0 0 1 2.944.789 3.823 3.823 0 0 0 2.523 1.457 2.525 2.525 0 0 1 2.155 2.155 3.824 3.824 0 0 0 1.457 2.523 2.525 2.525 0 0 1 .789 2.944 3.824 3.824 0 0 0 0 2.913 2.525 2.525 0 0 1-.789 2.944 3.824 3.824 0 0 0-1.457 2.523 2.525 2.525 0 0 1-2.155 2.155 3.823 3.823 0 0 0-2.523 1.457 2.524 2.524 0 0 1-2.944.789 3.824 3.824 0 0 0-2.913 0zm10.033 4.169a.664.664 0 0 0-.813.47l-.754 2.814L70.7 25.52a3.839 3.839 0 0 0 1.961-1.333 2.5 2.5 0 0 1 1.651-.953 3.817 3.817 0 0 0 .806-.2l3.5 6.057z" transform="translate(-50.229 .001)"/>
            <path d="M178.421 132.2l-2.066 2.066a.664.664 0 0 0 0 .939l3.876 3.876a.664.664 0 0 0 .939 0l5.4-5.4a.664.664 0 0 0 0-.939l-2.066-2.066a.664.664 0 0 0-.939 0l-2.86 2.86-1.34-1.34a.664.664 0 0 0-.939 0zm1.809 2.749a.664.664 0 0 0 .939 0l2.86-2.86 1.127 1.127-4.457 4.457-2.936-2.936 1.127-1.127z" transform="translate(-50.229 .001) translate(-114.226 -121.822)"/>
            <path d="M143.23 83.15a8.637 8.637 0 0 0-5.453-8.029.664.664 0 0 0-.49 1.235 7.306 7.306 0 1 1-5.383 0 .664.664 0 0 0-.49-1.235 8.635 8.635 0 1 0 11.816 8.029z" transform="translate(-50.229 .001) translate(-67.362 -70.089)"/>
            <path d="M246.625 67.994a.664.664 0 1 0-.47-.195.666.666 0 0 0 .47.195z" transform="translate(-50.229 .001) translate(-179.391 -62.239)"/>
        </g>
    </g>
</svg>
