<svg xmlns="http://www.w3.org/2000/svg" width="34" height="34" viewBox="0 0 34 34">
    <g>
        <path d="M33.934 28.151A13.4 13.4 0 0 0 23.512 16.4v-1.689a2.258 2.258 0 0 0-.545-4.449h-4.781a2.258 2.258 0 0 0-.545 4.449V16.4A13.334 13.334 0 0 0 11.1 20a13.478 13.478 0 0 0-1.128 1.28H5.191a.664.664 0 1 0 0 1.328H9.07a13.313 13.313 0 0 0-1.178 2.552H.664a.664.664 0 1 0 0 1.328h6.852a13.5 13.5 0 0 0-.33 2.552H4.25a.664.664 0 0 0 0 1.328h2.958a13.482 13.482 0 0 0 .415 2.552H3.32a.664.664 0 1 0 0 1.328h4.726a13.412 13.412 0 0 0 11.214 8.586q.658.065 1.316.065a13.446 13.446 0 0 0 7.324-2.163.664.664 0 1 0-.725-1.113 12.086 12.086 0 1 1 3.56-3.564.664.664 0 1 0 1.114.723 13.457 13.457 0 0 0 2.085-8.631zM17.256 12.52a.931.931 0 0 1 .93-.93h4.781a.93.93 0 0 1 0 1.859h-4.781a.931.931 0 0 1-.93-.929zm1.713 3.655v-1.4h3.215v1.394a13.531 13.531 0 0 0-3.215.005z" transform="translate(0 -9.762)"/>
        <path d="M436.434 425.5a.664.664 0 1 0 .47.195.667.667 0 0 0-.47-.195z" transform="translate(0 -9.762) translate(-406.832 -387.663)"/>
        <path d="M165.174 144.609a10.3 10.3 0 1 0 10.3 10.3 10.313 10.313 0 0 0-10.3-10.3zm0 19.275a8.974 8.974 0 1 1 8.974-8.974 8.984 8.984 0 0 1-8.974 8.974z" transform="translate(0 -9.762) translate(-144.587 -125.425)"/>
        <path d="M264.754 219.606l-3.289 3.289a2.058 2.058 0 0 0-1.823 0l-1.472-1.472a.664.664 0 0 0-.939.939l1.472 1.472a2.064 2.064 0 1 0 3.7 0l3.193-3.193.1-.1a.664.664 0 0 0-.939-.939zm-4.2 5.875a.735.735 0 1 1 .735-.735.736.736 0 0 1-.736.735z" transform="translate(0 -9.762) translate(-239.967 -195.26)"/>
        <path d="M398.934 289.86h-.615a.664.664 0 1 0 0 1.328h.615a.664.664 0 0 0 0-1.328z" transform="translate(0 -9.762) translate(-371.248 -261.031)"/>
        <path d="M194.361 289.616h-.615a.664.664 0 1 0 0 1.328h.615a.664.664 0 1 0 0-1.328z" transform="translate(0 -9.762) translate(-180.26 -260.803)"/>
        <path d="M300.787 184.762a.664.664 0 0 0 .664-.664v-.615a.664.664 0 1 0-1.328 0v.615a.664.664 0 0 0 .664.664z" transform="translate(0 -9.762) translate(-280.193 -161.098)"/>
        <path d="M300.543 387.393a.664.664 0 0 0-.664.664v.615a.664.664 0 0 0 1.328 0v-.615a.664.664 0 0 0-.664-.664z" transform="translate(0 -9.762) translate(-279.965 -352.087)"/>
        <path d="M.664 351.44a.664.664 0 1 0 .469 1.134.664.664 0 0 0-.469-1.134z" transform="translate(0 -9.762) translate(0 -318.521)"/>
    </g>
</svg>
