<svg xmlns="http://www.w3.org/2000/svg" width="34" height="34" viewBox="0 0 34 34">
    <g>
        <g>
            <g>
                <path d="M33.434 28.333H32.3v-.567a1.7 1.7 0 0 0-1.133-1.6V14.629a1.7 1.7 0 0 0 1.133-1.6v-.567a1.7 1.7 0 1 0 0-3.4h-.406L17.3.084a.567.567 0 0 0-.594 0L2.107 9.066H1.7a1.7 1.7 0 0 0 0 3.4v.567a1.7 1.7 0 0 0 1.133 1.6v11.538a1.7 1.7 0 0 0-1.133 1.6v.567H.568A.567.567 0 0 0 0 28.9v4.533A.567.567 0 0 0 .568 34h32.866a.567.567 0 0 0 .566-.567V28.9a.567.567 0 0 0-.566-.567zm-2.267-15.3a.567.567 0 0 1-.567.567h-2.266a.567.567 0 0 1-.567-.567v-.567h3.4zM30.6 27.2a.567.567 0 0 1 .567.567v.567h-3.4v-.567a.567.567 0 0 1 .567-.567zm-1.7-1.133V14.733h1.133v11.333zM1.7 11.333a.567.567 0 0 1 0-1.133h3.968V9.066H4.27L17 1.232l12.732 7.834H9.068V10.2H32.3a.567.567 0 0 1 0 1.133zm11.334 14.838V14.629a1.7 1.7 0 0 0 1.133-1.6v-.567h5.667v.567a1.7 1.7 0 0 0 1.133 1.6v11.542a1.7 1.7 0 0 0-1.133 1.6v.567h-5.666v-.567a1.7 1.7 0 0 0-1.134-1.6zm-.566 1.029a.567.567 0 0 1 .567.567v.567h-3.4v-.567a.567.567 0 0 1 .565-.567zm-1.7-1.133V14.733H11.9v11.333zm1.7-12.467H10.2a.567.567 0 0 1-.567-.567v-.567h3.4v.567a.567.567 0 0 1-.565.567zm8.5 14.167a.567.567 0 0 1 .567-.567H23.8a.567.567 0 0 1 .567.567v.567h-3.4zm1.133-1.7V14.733h1.133v11.333zM23.8 13.6h-2.266a.567.567 0 0 1-.567-.567v-.567h3.4v.567a.567.567 0 0 1-.567.567zm-20.4 0a.567.567 0 0 1-.567-.567v-.567h3.4v.567a.567.567 0 0 1-.567.567zm1.7 1.133v11.333H3.968V14.733H5.1zM2.834 27.766A.567.567 0 0 1 3.4 27.2h2.268a.567.567 0 0 1 .567.567v.567h-3.4zm4.533 5.1H1.134v-3.4h6.234zm-1.133-6.7V14.629a1.7 1.7 0 0 0 1.133-1.6v-.567H8.5v.567a1.7 1.7 0 0 0 1.133 1.6v11.542a1.7 1.7 0 0 0-1.133 1.6v.567H7.368v-.567a1.7 1.7 0 0 0-1.134-1.6zm19.267 6.7H8.5v-1.133h13.6V30.6H8.5v-1.134h17zm-1.133-6.7V14.629a1.7 1.7 0 0 0 1.133-1.6v-.567h1.133v.567a1.7 1.7 0 0 0 1.133 1.6v11.542a1.7 1.7 0 0 0-1.133 1.6v.567H25.5v-.567a1.7 1.7 0 0 0-1.132-1.6zm8.5 6.7h-6.234v-3.4h6.233z" transform="translate(-.001) translate(.001 -.001) translate(-.001 .001)"/>
            </g>
        </g>
        <g>
            <g>
                <path d="M0 0H1.133V1.133H0z" transform="translate(-.001) translate(23.234 30.6)"/>
            </g>
        </g>
        <g>
            <g>
                <path d="M0 0H1.133V1.133H0z" transform="translate(-.001) translate(6.801 9.066)"/>
            </g>
        </g>
        <g>
            <g>
                <path d="M210.268 48a2.267 2.267 0 1 0 2.267 2.267A2.267 2.267 0 0 0 210.268 48zm0 3.4a1.133 1.133 0 1 1 1.133-1.133 1.133 1.133 0 0 1-1.133 1.133z" transform="translate(-.001) translate(14.734 3.4) translate(-208.001 -48.002)"/>
            </g>
        </g>
    </g>
</svg>
