<?xml version="1.0" encoding="utf-8"?>
<!-- Generator: Adobe Illustrator 19.2.1, SVG Export Plug-In . SVG Version: 6.00 Build 0)  -->
<svg version="1.1" id="Слой_1" xmlns="http://www.w3.org/2000/svg" xmlns:xlink="http://www.w3.org/1999/xlink" x="0px" y="0px"
	 viewBox="0 0 32 32" style="enable-background:new 0 0 32 32;" xml:space="preserve">
<g>
	<path d="M22.4,7.1H9.6c-0.2,0-0.4,0.2-0.4,0.4v17c0,0.2,0.2,0.4,0.4,0.4h3.8c0.2,0,0.4-0.2,0.4-0.4v-3.1h4.5v3.1c0,0.2,0.2,0.4,0.4,0.4h3.8c0.2,0,0.4-0.2,0.4-0.4v-17C22.8,7.3,22.6,7.1,22.4,7.1z M13.5,18.5c0,0.2-0.1,0.3-0.3,0.3c0,0,0,0,0,0h-1.7c-0.2,0-0.3-0.1-0.3-0.3c0,0,0,0,0,0v-1.7c0-0.2,0.1-0.3,0.3-0.3c0,0,0,0,0,0h1.7c0.2,0,0.3,0.1,0.3,0.3c0,0,0,0,0,0L13.5,18.5z M13.5,14.9c0,0.2-0.1,0.3-0.3,0.3c0,0,0,0,0,0h-1.7c-0.2,0-0.3-0.1-0.3-0.3c0,0,0,0,0,0v-1.7c0-0.2,0.1-0.3,0.3-0.3c0,0,0,0,0,0h1.7c0.2,0,0.3,0.1,0.3,0.3c0,0,0,0,0,0L13.5,14.9z M13.5,11.2c0,0.2-0.1,0.3-0.3,0.3c0,0,0,0,0,0h-1.7c-0.2,0-0.3-0.1-0.3-0.3c0,0,0,0,0,0V9.5c0-0.2,0.1-0.3,0.3-0.3c0,0,0,0,0,0h1.7c0.2,0,0.3,0.1,0.3,0.3c0,0,0,0,0,0L13.5,11.2z M17.2,18.5c0,0.2-0.1,0.3-0.3,0.3c0,0,0,0,0,0h-1.7c-0.2,0-0.3-0.1-0.3-0.3c0,0,0,0,0,0v-1.7c0-0.2,0.1-0.3,0.3-0.3c0,0,0,0,0,0h1.7c0.2,0,0.3,0.1,0.3,0.3c0,0,0,0,0,0L17.2,18.5z M17.2,14.9c0,0.2-0.1,0.3-0.3,0.3c0,0,0,0,0,0h-1.7c-0.2,0-0.3-0.1-0.3-0.3c0,0,0,0,0,0v-1.7c0-0.2,0.1-0.3,0.3-0.3c0,0,0,0,0,0h1.7c0.2,0,0.3,0.1,0.3,0.3c0,0,0,0,0,0L17.2,14.9z M17.2,11.2c0,0.2-0.1,0.3-0.3,0.3c0,0,0,0,0,0h-1.7c-0.2,0-0.3-0.1-0.3-0.3c0,0,0,0,0,0V9.5c0-0.2,0.1-0.3,0.3-0.3h1.7c0.2,0,0.3,0.1,0.3,0.3c0,0,0,0,0,0L17.2,11.2z M20.8,18.5c0,0.2-0.1,0.3-0.3,0.3c0,0,0,0,0,0h-1.7c-0.2,0-0.3-0.1-0.3-0.3c0,0,0,0,0,0v-1.7c0-0.2,0.1-0.3,0.3-0.3c0,0,0,0,0,0h1.7c0.2,0,0.3,0.1,0.3,0.3c0,0,0,0,0,0L20.8,18.5z M20.8,14.9c0,0.2-0.1,0.3-0.3,0.3c0,0,0,0,0,0h-1.7c-0.2,0-0.3-0.1-0.3-0.3c0,0,0,0,0,0v-1.7c0-0.2,0.1-0.3,0.3-0.3c0,0,0,0,0,0h1.7c0.2,0,0.3,0.1,0.3,0.3c0,0,0,0,0,0L20.8,14.9z M20.8,11.2c0,0.2-0.1,0.3-0.3,0.3c0,0,0,0,0,0h-1.7c-0.2,0-0.3-0.1-0.3-0.3c0,0,0,0,0,0V9.5c0-0.2,0.1-0.3,0.3-0.3c0,0,0,0,0,0h1.7c0.2,0,0.3,0.1,0.3,0.3c0,0,0,0,0,0L20.8,11.2z"/>
</g>
</svg>
