<?xml version="1.0" encoding="utf-8"?>
<!-- Generator: Adobe Illustrator 19.2.1, SVG Export Plug-In . SVG Version: 6.00 Build 0)  -->
<svg version="1.1" id="Слой_1" xmlns="http://www.w3.org/2000/svg" xmlns:xlink="http://www.w3.org/1999/xlink" x="0px" y="0px"
	 viewBox="0 0 32 32" style="enable-background:new 0 0 32 32;" xml:space="preserve">
<path d="M25.2,15.4L12.4,9c-0.3-0.1-0.6,0-0.7,0.2l-2.7,5.5c-0.1,0.3,0,0.6,0.2,0.7l3.8,1.9L12.7,18c-0.1,0.3,0,0.6,0.2,0.7l0.1,0.1l-0.7,1.2H8.4c-0.4-0.7-1.1-1.2-1.9-1.2v4.4c0.8,0,1.5-0.4,1.9-1.1h4.5c0.4,0,0.7-0.2,0.9-0.5l1-1.8l0.2,0.1c0.3,0.1,0.6,0,0.7-0.2l0.3-0.7l2.9,1.4c0.2,0.1,0.4,0.1,0.5,0l0.8-0.5l1.4,0.7c0.3,0.1,0.6,0,0.7-0.2l1.4-2.9l1.5-1c0.2-0.2,0.3-0.5,0.1-0.7C25.4,15.5,25.3,15.4,25.2,15.4L25.2,15.4z"/>
</svg>
