<svg xmlns="http://www.w3.org/2000/svg" viewBox="0 0 18 18">
	<g>
		<path d="M8.5,14.5C8.5,14.5,8.5,14.5,8.5,14.5C8.5,14.5,8.5,14.5,8.5,14.5C8.6,14.5,8.6,14.5,8.5,14.5c0.1,0.1,0.1,0.1,0.1,0.1c0,0,0,0,0,0c0,0,0,0,0,0c0,0,0,0,0,0c0,0,0,0,0,0c0,0,0,0,0,0c0,0,0,0,0,0c0,0,0,0,0,0c0,0,0,0,0,0c0,0,0,0,0,0c0,0,0,0,0,0c0,0,0.1,0,0.1,0c0,0,0,0,0,0c0,0,0,0,0,0c0,0,0,0,0,0c0,0,0,0,0,0c0,0,0,0,0,0c0,0,0,0,0,0c0,0,0,0,0,0c0,0,0,0,0,0c0,0,0,0,0,0c0,0,0,0,0,0c0,0,0,0,0,0c0,0,0,0,0,0c0,0,0,0,0.1,0c0,0,0,0,0,0l5-5c0.3-0.3,0.3-0.7,0-1c-0.3-0.3-0.7-0.3-1,0l-3.7,3.7v-11c0-0.4-0.3-0.7-0.7-0.7c-0.4,0-0.7,0.3-0.7,0.7v11L4.5,8.5c-0.3-0.3-0.7-0.3-1,0c-0.3,0.3-0.3,0.7,0,1L8.5,14.5z"/>
		<path d="M14,16.1H4c-0.4,0-0.7,0.3-0.7,0.7s0.3,0.7,0.7,0.7H14c0.4,0,0.7-0.3,0.7-0.7S14.3,16.1,14,16.1z"/>
	</g>
</svg>
