<?xml version="1.0" encoding="utf-8"?>
<!-- Generator: Adobe Illustrator 19.2.1, SVG Export Plug-In . SVG Version: 6.00 Build 0)  -->
<svg version="1.1" id="Слой_1" xmlns="http://www.w3.org/2000/svg" xmlns:xlink="http://www.w3.org/1999/xlink" x="0px" y="0px"
	 viewBox="0 0 32 32" style="enable-background:new 0 0 32 32;" xml:space="preserve">
<g>
	<path d="M26.1,12.8l-9.8-4.3c-0.2-0.1-0.4-0.1-0.5,0l-9.8,4.3c-0.3,0.1-0.5,0.5-0.3,0.9c0.1,0.1,0.2,0.3,0.3,0.3l9.8,4.3c0.2,0.1,0.4,0.1,0.5,0l7-3v7c0,0.4,0.3,0.6,0.6,0.7c0.4,0,0.7-0.3,0.7-0.6c0,0,0,0,0,0V15c0-0.1-0.1-0.2-0.2-0.2l-8.4-1.1c-0.4-0.1-0.6-0.4-0.6-0.7c0-0.3,0.3-0.6,0.7-0.6c0,0,9.4,1.2,9.4,1.2c0.2,0,0.3,0.1,0.4,0.3c0,0.1,0.2,0.2,0.3,0.1c0,0,0,0,0,0c0.3-0.1,0.5-0.5,0.4-0.8C26.4,13,26.3,12.8,26.1,12.8z"/>
	<path d="M15.2,19.4l-5.5-2.4c-0.1,0-0.2,0-0.3,0.1c0,0,0,0.1,0,0.1v2.4c0,2.2,2.9,3.9,6.6,3.9s6.6-1.7,6.6-3.9v-2.4c0-0.1-0.1-0.2-0.2-0.2c0,0-0.1,0-0.1,0l-5.5,2.4C16.3,19.7,15.7,19.7,15.2,19.4z"/>
</g>
</svg>
