<?xml version="1.0" encoding="utf-8"?>
<!-- Generator: Adobe Illustrator 19.2.1, SVG Export Plug-In . SVG Version: 6.00 Build 0)  -->
<svg version="1.1" id="Слой_1" xmlns="http://www.w3.org/2000/svg" xmlns:xlink="http://www.w3.org/1999/xlink" x="0px" y="0px"
	 viewBox="0 0 32 32" style="enable-background:new 0 0 32 32;" xml:space="preserve">
<path d="M24.5,15.8c-0.3-0.3-0.6-0.4-1-0.4l-0.4,0L23,15c-0.6-2.2-2.2-4-4.3-4.8c0.8,1.5,0.3,3.3-1.2,4.1c-1.5,0.8-3.3,0.3-4.1-1.2c-0.3-0.5-0.4-1-0.4-1.5h1c0,1.1,0.9,2,2,2c1.1,0,2-0.9,2-2c0-1.1-0.9-2-2-2c0,0,0,0,0,0c-0.1,0-0.2,0-0.3,0h-0.1c-1,0-1.8-0.8-1.8-1.8h-1c0,0.6,0.2,1.3,0.6,1.8h-0.5c-1,0-1.8-0.8-1.8-1.8h-1c0,1.3,0.9,2.5,2.3,2.8c-1.6,1-2.8,2.5-3.3,4.3L9,15.4l-0.4,0c-0.8,0-1.5,0.7-1.5,1.5s0.7,1.5,1.5,1.5l0.4,0l0.1,0.4c1,3.8,5,6.1,8.9,5.1c2.5-0.7,4.4-2.6,5.1-5.1l0.1-0.4l0.4,0c0.8,0,1.5-0.7,1.5-1.5C24.9,16.5,24.8,16.1,24.5,15.8L24.5,15.8z M12.6,16.3c-0.5,0-0.8,0.4-0.8,0.8h-1c0-1,0.8-1.9,1.9-1.9c1,0,1.9,0.8,1.9,1.9c0,0,0,0,0,0h-1C13.5,16.7,13.1,16.3,12.6,16.3L12.6,16.3z M16,21.7c-1.1,0-2.2-0.6-2.8-1.6l0.9-0.5c0.6,1,1.9,1.4,3,0.8c0.3-0.2,0.6-0.5,0.8-0.8l0.9,0.5C18.2,21.1,17.2,21.7,16,21.7z M20.2,17.1c0-0.5-0.4-0.8-0.8-0.8c-0.5,0-0.8,0.4-0.8,0.8h-1c0-1,0.8-1.9,1.9-1.9s1.9,0.8,1.9,1.9H20.2z"/>
</svg>
