<svg xmlns="http://www.w3.org/2000/svg" viewBox="0 0 20 20" width="20" height="20">
	<g>
		<path fill="#101010" d="M4.7,12.9c1.7,2.1,3.9,3.7,6.3,4.9c1.1,0.6,2.3,0.9,3.5,1c0.1,0,0.2,0,0.3,0c0.9,0,1.7-0.3,2.3-1c0,0,0,0,0,0c0.2-0.3,0.5-0.5,0.7-0.7c0.2-0.2,0.4-0.3,0.5-0.5c0.7-0.7,0.8-1.8,0.1-2.5c0,0-0.1-0.1-0.1-0.1L16,11.8c-0.3-0.4-0.8-0.6-1.3-0.6c-0.5,0-1,0.2-1.3,0.6l-1.3,1.3C12,13,11.9,13,11.7,12.9c-0.1-0.1-0.3-0.1-0.4-0.2c-1.3-0.8-2.4-1.8-3.3-3C7.6,9.1,7.2,8.5,6.9,7.9c0.3-0.3,0.7-0.6,1-1C8,6.8,8.1,6.7,8.2,6.5c0.4-0.3,0.6-0.8,0.6-1.3c0-0.5-0.2-1-0.6-1.3L7.1,2.8C7,2.7,6.9,2.5,6.7,2.4C6.5,2.2,6.2,1.9,6,1.7C5.6,1.3,5.2,1.1,4.7,1.1c-0.5,0-1,0.2-1.3,0.6L2,3.1C1.5,3.5,1.2,4.2,1.2,4.9c0,1,0.1,2,0.5,2.9C2.4,9.7,3.4,11.4,4.7,12.9z M2.1,4.9c0-0.5,0.2-0.9,0.6-1.3L4,2.3C4.2,2.1,4.4,2,4.7,2c0.3,0,0.5,0.1,0.7,0.3c0.2,0.2,0.5,0.5,0.7,0.7c0.1,0.1,0.3,0.3,0.4,0.4l1.1,1.1C7.8,4.7,7.9,5,7.9,5.2c0,0.3-0.1,0.5-0.3,0.7C7.5,6,7.3,6.2,7.2,6.3c-0.3,0.3-0.7,0.7-1,1l0,0C6,7.5,5.9,7.8,6,8.1c0,0,0,0,0,0c0.3,0.8,0.8,1.5,1.3,2.1c1,1.3,2.2,2.4,3.6,3.2c0.2,0.1,0.3,0.2,0.5,0.3c0.1,0.1,0.3,0.1,0.4,0.2l0,0c0.1,0.1,0.2,0.1,0.4,0.1c0.2,0,0.4-0.1,0.5-0.3l1.4-1.4c0.2-0.2,0.4-0.3,0.7-0.3c0.3,0,0.5,0.1,0.7,0.3l2.2,2.2c0.4,0.3,0.4,0.9,0.1,1.2c0,0.1-0.1,0.1-0.1,0.1c-0.2,0.2-0.3,0.3-0.5,0.5c-0.3,0.3-0.5,0.5-0.8,0.8c-0.4,0.4-1,0.7-1.6,0.7c-0.1,0-0.1,0-0.2,0c-1.1-0.1-2.2-0.4-3.2-0.9c-2.3-1.1-4.3-2.7-6-4.7c-1.2-1.4-2.2-3.1-2.9-4.8C2.2,6.7,2,5.8,2.1,4.9z"/>
		<path fill="#101010" d="M14.9,19C14.8,19,14.8,19,14.9,19C14.8,19,14.8,19,14.9,19c-0.1,0-0.2,0-0.2,0c0,0-0.1,0-0.1,0c-1.3-0.1-2.5-0.5-3.6-1.1c-2.4-1.2-4.6-2.9-6.3-5c-1.3-1.5-2.4-3.3-3.1-5.2C1.1,6.9,1,5.9,1,4.9C1.1,4.1,1.4,3.5,1.9,3l1.4-1.4C3.6,1.2,4.1,1,4.7,1c0.5,0,1,0.2,1.4,0.6C6.3,1.8,6.5,2,6.8,2.3l0.1,0.1C7,2.5,7.1,2.6,7.2,2.7l1.1,1.1C8.7,4.2,9,4.7,9,5.2c0,0.6-0.3,1.1-0.7,1.4L8,7C7.7,7.3,7.4,7.6,7.1,7.9C7.4,8.5,7.7,9,8.1,9.6c0.9,1.2,2,2.2,3.3,3c0.1,0.1,0.3,0.1,0.4,0.2c0.1,0,0.2,0.1,0.3,0.1l1.2-1.2c0.4-0.4,0.9-0.6,1.4-0.6c0.5,0,1.1,0.2,1.4,0.7l2.2,2.2c0,0,0.1,0.1,0.1,0.1c0.3,0.4,0.5,0.9,0.5,1.4c0,0.5-0.3,1-0.6,1.3c-0.2,0.2-0.3,0.3-0.5,0.5c-0.2,0.2-0.5,0.5-0.7,0.7l0,0C16.5,18.7,15.7,19,14.9,19z M14.5,18.7c0,0,0.1,0,0.1,0c0.1,0,0.1,0,0.2,0c0.8,0,1.5-0.3,2.1-0.9c0.2-0.3,0.5-0.5,0.7-0.8c0.2-0.2,0.3-0.3,0.5-0.5c0.3-0.3,0.5-0.7,0.5-1.1c0-0.4-0.1-0.9-0.4-1.2c0,0-0.1-0.1-0.1-0.1l-2.2-2.2c-0.3-0.3-0.7-0.5-1.2-0.6c-0.4,0-0.9,0.2-1.2,0.5l-1.4,1.4L12,13.2c-0.1-0.1-0.2-0.1-0.4-0.2c-0.1-0.1-0.3-0.1-0.4-0.2C10,12,8.8,10.9,7.9,9.7C7.4,9.2,7,8.6,6.7,7.9l0-0.1l0.1-0.1c0.3-0.3,0.6-0.6,1-1C7.8,6.7,7.9,6.6,8,6.6l0.1-0.1c0.3-0.3,0.6-0.8,0.6-1.2c0-0.5-0.2-0.9-0.6-1.2L7,2.9C6.9,2.8,6.8,2.7,6.7,2.6L6.6,2.5C6.4,2.3,6.1,2,5.9,1.8C5.6,1.5,5.1,1.3,4.7,1.3c-0.5,0-0.9,0.2-1.2,0.5L2.1,3.2C1.6,3.6,1.4,4.2,1.3,4.9c0,1,0.1,2,0.5,2.9c0.7,1.9,1.7,3.6,3,5.1l0,0c1.7,2.1,3.8,3.7,6.2,4.9C12.2,18.3,13.3,18.6,14.5,18.7C14.5,18.7,14.5,18.7,14.5,18.7z M14.8,18.1C14.8,18.1,14.8,18.1,14.8,18.1c-0.1,0-0.2,0-0.3,0c-1.1-0.1-2.2-0.4-3.2-1C9,16,7,14.5,5.3,12.5C4.1,11,3.1,9.4,2.4,7.6C2,6.7,1.9,5.8,1.9,4.9l0,0c0-0.5,0.3-1,0.6-1.3l1.4-1.4C4.1,2,4.4,1.9,4.7,1.9C5,1.9,5.3,2,5.5,2.2c0.2,0.2,0.4,0.4,0.6,0.6l1.6,1.6C7.9,4.6,8,4.9,8.1,5.2C8,5.5,7.9,5.8,7.7,6L7.2,6.5C6.9,6.8,6.6,7.1,6.3,7.4C6.1,7.5,6,7.8,6.1,8l0,0c0.3,0.8,0.8,1.4,1.3,2.1c1,1.3,2.2,2.3,3.5,3.2c0.1,0.1,0.3,0.2,0.5,0.3c0.1,0.1,0.3,0.1,0.4,0.2l0,0c0.1,0,0.2,0.1,0.3,0.1c0.2,0,0.3-0.1,0.4-0.2l1.4-1.4c0.2-0.2,0.5-0.4,0.8-0.4c0.3,0,0.6,0.2,0.8,0.4l2.2,2.2c0.2,0.2,0.3,0.4,0.4,0.7c0,0.3-0.1,0.5-0.2,0.8c0,0.1-0.1,0.1-0.2,0.2c-0.1,0.2-0.3,0.3-0.5,0.5c-0.3,0.3-0.5,0.5-0.8,0.8C16,17.9,15.5,18.1,14.8,18.1z M14.8,17.8C14.8,17.8,14.8,17.8,14.8,17.8c0.6,0,1.1-0.2,1.5-0.6c0.2-0.3,0.5-0.5,0.8-0.8c0.2-0.2,0.3-0.3,0.5-0.5c0.1-0.1,0.1-0.1,0.1-0.1c0.3-0.3,0.2-0.8-0.1-1l-2.2-2.2c-0.1-0.2-0.3-0.3-0.6-0.3c-0.2,0-0.4,0.1-0.6,0.3l-1.4,1.4c-0.2,0.2-0.4,0.3-0.7,0.3c-0.2,0-0.3,0-0.4-0.1l0,0c-0.1-0.1-0.3-0.2-0.4-0.2c-0.2-0.1-0.3-0.2-0.5-0.3c-1.4-0.9-2.6-2-3.6-3.3c-0.5-0.6-1-1.4-1.3-2.1l0,0c-0.1-0.3-0.1-0.7,0.2-1C6.4,6.9,6.7,6.6,7,6.3l0.4-0.4c0.2-0.2,0.3-0.4,0.3-0.6c0-0.2-0.1-0.4-0.3-0.6L5.9,3.1C5.7,2.8,5.5,2.6,5.3,2.4C5.1,2.3,4.9,2.2,4.7,2.2c-0.2,0-0.4,0.1-0.6,0.3L2.7,3.8C2.4,4.1,2.2,4.5,2.2,5c0,0.9,0.1,1.7,0.5,2.5c0.7,1.8,1.7,3.4,2.9,4.8c1.6,2,3.6,3.5,5.9,4.6c1,0.5,2,0.8,3.1,0.9C14.7,17.8,14.7,17.8,14.8,17.8z"/>
	</g>
</svg>
