<svg xmlns="http://www.w3.org/2000/svg" viewBox="0 0 20 20" width="20" height="20"><path fill="#101010" d="M16.6,3.5c-2.5-3.7-7.6-4.6-11.2-2c-0.8,0.6-1.5,1.2-2,2c-1.5,2.2-1.9,5-0.9,7.4c0.3,0.7,0.7,1.4,1.2,1.9l5.9,6.9c0.3,0.3,0.7,0.3,1,0.1c0,0,0.1-0.1,0.1-0.1l5.9-6.9c0.5-0.6,0.9-1.2,1.2-1.9C18.5,8.4,18.2,5.7,16.6,3.5z M16.3,10.4c-0.2,0.6-0.5,1.1-0.9,1.5L10,18.2l-5.3-6.3c-0.4-0.4-0.7-1-0.9-1.5C3,8.4,3.3,6.1,4.5,4.3c2.1-3,6.3-3.8,9.3-1.7c0.7,0.5,1.2,1,1.7,1.7C16.7,6.1,17,8.4,16.3,10.4z"/><path fill="#101010" d="M10,4.1C7.8,4.1,6.1,5.8,6.1,8s1.8,3.9,3.9,3.9s3.9-1.8,3.9-3.9C13.9,5.8,12.2,4.1,10,4.1z M10,10.5c-1.4,0-2.5-1.1-2.5-2.5S8.6,5.5,10,5.5c1.4,0,2.5,1.1,2.5,2.5l0,0C12.5,9.4,11.4,10.5,10,10.5z"/></svg>
