<svg xmlns="http://www.w3.org/2000/svg" viewBox="0 0 18 18">
<g>
	<path d="M17.2,14.3h-2c-0.4-1.4-1.9-2.2-3.2-1.8c-0.9,0.2-1.5,0.9-1.8,1.8H0.7C0.3,14.3,0,14.6,0,15s0.3,0.8,0.8,0.8h9.5c0.4,1.4,1.9,2.2,3.2,1.8c0.9-0.2,1.5-0.9,1.8-1.8h2c0.4,0,0.8-0.3,0.8-0.8S17.7,14.3,17.2,14.3L17.2,14.3z M12.7,16.1c-0.6,0-1.1-0.5-1.1-1.1s0.5-1.1,1.1-1.1s1.1,0.5,1.1,1.1C13.9,15.6,13.4,16.1,12.7,16.1z"/>
	<path d="M17.2,2.3h-2c-0.4-1.4-1.9-2.2-3.2-1.8c-0.9,0.2-1.5,0.9-1.8,1.8H0.7C0.3,2.3,0,2.6,0,3s0.3,0.8,0.8,0.8h9.5c0.4,1.4,1.9,2.2,3.2,1.8c0.9-0.2,1.5-0.9,1.8-1.8h2C17.7,3.8,18,3.4,18,3S17.7,2.3,17.2,2.3L17.2,2.3z M12.7,4.1c-0.6,0-1.1-0.5-1.1-1.1s0.5-1.1,1.1-1.1s1.1,0.5,1.1,1.1C13.9,3.6,13.4,4.1,12.7,4.1z"/>
	<path d="M17.2,8.3H7.7C7.3,6.9,5.9,6.1,4.5,6.5C3.7,6.7,3,7.4,2.7,8.3h-2C0.3,8.3,0,8.6,0,9s0.3,0.8,0.8,0.8h2c0.4,1.4,1.9,2.2,3.2,1.8c0.9-0.2,1.5-0.9,1.8-1.8h9.5C17.7,9.8,18,9.4,18,9S17.7,8.3,17.2,8.3z M5.2,10.1c-0.6,0-1.1-0.5-1.1-1.1s0.5-1.1,1.1-1.1S6.4,8.4,6.4,9l0,0C6.4,9.6,5.9,10.1,5.2,10.1z"/>
</g>
</svg>
