<svg version="1.0" xmlns="http://www.w3.org/2000/svg" width="933.333" height="933.333" viewBox="0 0 700 700"><path d="M316 78.4c-15.1 3.4-27.7 13.3-34.4 27.1-5.6 11.4-5.8 14.1-5.8 67.2l-.1 48.3-2.1.1c-1.1 0-2.8.2-3.6.3-.8.2-4.2.6-7.5 1-10.7 1.2-13 1.6-15.5 2.2-1.4.3-3.6.8-5 1-6.1 1.1-21.7 5.7-30.2 9-41.7 15.9-76.8 44.3-101.5 82-13.7 20.9-25.3 50.2-28.9 73-.3 2-.7 4.5-.9 5.6-1.3 6.4-1.8 15-1.9 27.8-.1 19.1 1.1 32.2 4.5 47 .6 2.5 1.3 5.6 1.5 6.9 2.4 12.2 12.7 37.6 22.3 54.6 3 5.2 13.2 20.5 15.1 22.6.8.9 3.1 3.6 5 6 4.7 6 21.6 22.7 26.5 26.4 2.2 1.7 4.8 3.7 5.7 4.5 4.3 3.9 23.4 14.5 33.4 18.5 11 4.5 26.7 9 34.6 10 2.4.2 5.9.8 7.8 1.1 1.9.3 31.4.7 65.5.8 52.6.2 65.8-.1 74-1.8 2.8-.5 12.9-5.8 16.7-8.7 5.1-3.8 11.7-11.8 14.6-17.4 5.2-10.3 7.3-27 4.6-37.2-3.4-12.9-13.6-25.9-25.4-32.2-10.9-5.8-11.9-5.9-66.5-6-27.5-.1-51.1-.3-52.5-.5-1.4-.3-4.3-.7-6.5-1-12.1-1.6-27.9-8.1-39.1-16.2-17.2-12.2-30.5-31.3-36-51.9-2.7-10-2.6-33.6.2-44.5 8-31.7 28.3-56.8 56.8-70 8.9-4.2 20-7.4 28.7-8.5l5.6-.7.1 42.4c0 23.2.3 44.3.7 46.7 5.6 37.2 48.8 55.9 80.2 34.8 6.6-4.4 13.4-12 16.9-19 5.4-10.5 5.7-13.6 5.8-61l.1-43.7 96.5-.1c53.1 0 97.4-.2 98.5-.4 1.1-.1 4.2-.6 6.9-.9 6.8-.8 18.1-6.5 24.6-12.4 16.5-14.8 21.3-39.1 11.9-59.8-6.2-13.9-22.5-26.7-36.6-29-2.1-.4-4.5-.8-5.3-.9-.8-.2-45.4-.4-99-.4l-97.6-.1.1-49.8c0-27.3-.3-51.9-.8-54.6-4.5-26.1-34.8-44.5-62.7-38.2zM121.1 95.6c-13.5 3.6-27.8 15.1-33.8 27.5-6.3 12.7-6.2 10.8-6.1 102.2 0 45.8.2 82.5.5 81.7 1.4-3.6 11.9-20.6 17.5-28.2 7.5-10.1 10.6-13.6 22.7-25.5 15.5-15.4 30.8-26.3 52.4-37.3 11.2-5.8 11.7-6.1 11.8-9.3.4-16.8 0-62.8-.6-67.3-2.6-21.1-19.2-39.8-39.3-44.2-6.2-1.4-18.9-1.2-25.1.4z"/><path d="M429.9 359.8c-1.3.2-1.5 5.2-1.3 37 .2 20.2.5 69.5.8 109.7.4 61.6.7 73.9 2 78.8 5 18.4 19.3 32.6 37.7 37.3 5.6 1.5 16.6 2 20.9 1.1.8-.2 3.1-.7 5-1.1 5.8-1.3 15.3-6.4 20.7-11.1 6.8-5.9 12.1-14.2 15.1-23.4l2.5-7.6.1-109.9c.1-91.5-.1-109.9-1.3-110.4-1.3-.5-99.5-.9-102.2-.4z"/></svg>