<?xml version="1.0" standalone="no"?>
<!DOCTYPE svg PUBLIC "-//W3C//DTD SVG 20010904//EN"
 "http://www.w3.org/TR/2001/REC-SVG-20010904/DTD/svg10.dtd">
<svg version="1.0" xmlns="http://www.w3.org/2000/svg"
 width="700.000000pt" height="700.000000pt" viewBox="0 0 700.000000 700.000000"
 preserveAspectRatio="xMidYMid meet">
<metadata>
Created by potrace 1.11, written by Peter Selinger 2001-2013
</metadata>
<g transform="translate(0.000000,700.000000) scale(0.100000,-0.100000)"
fill="#000000" stroke="none">
<path d="M3160 6216 c-151 -34 -277 -133 -344 -271 -56 -114 -58 -141 -58
-672 l-1 -483 -21 -1 c-11 0 -28 -2 -36 -3 -8 -2 -42 -6 -75 -10 -107 -12
-130 -16 -155 -22 -14 -3 -36 -8 -50 -10 -61 -11 -217 -57 -302 -90 -417 -159
-768 -443 -1015 -820 -137 -209 -253 -502 -289 -730 -3 -20 -7 -45 -9 -56 -13
-64 -18 -150 -19 -278 -1 -191 11 -322 45 -470 6 -25 13 -56 15 -69 24 -122
127 -376 223 -546 30 -52 132 -205 151 -226 8 -9 31 -36 50 -60 47 -60 216
-227 265 -264 22 -17 48 -37 57 -45 43 -39 234 -145 334 -185 110 -45 267 -90
346 -100 24 -2 59 -8 78 -11 19 -3 314 -7 655 -8 526 -2 658 1 740 18 28 5
129 58 167 87 51 38 117 118 146 174 52 103 73 270 46 372 -34 129 -136 259
-254 322 -109 58 -119 59 -665 60 -275 1 -511 3 -525 5 -14 3 -43 7 -65 10
-121 16 -279 81 -391 162 -172 122 -305 313 -360 519 -27 100 -26 336 2 445
80 317 283 568 568 700 89 42 200 74 287 85 l56 7 1 -424 c0 -232 3 -443 7
-467 56 -372 488 -559 802 -348 66 44 134 120 169 190 54 105 57 136 58 610
l1 437 965 1 c531 0 974 2 985 4 11 1 42 6 69 9 68 8 181 65 246 124 165 148
213 391 119 598 -62 139 -225 267 -366 290 -21 4 -45 8 -53 9 -8 2 -454 4
-990 4 l-976 1 1 498 c0 273 -3 519 -8 546 -45 261 -348 445 -627 382z"/>
<path d="M1211 6044 c-135 -36 -278 -151 -338 -275 -63 -127 -62 -108 -61
-1022 0 -458 2 -825 5 -817 14 36 119 206 175 282 75 101 106 136 227 255 155
154 308 263 524 373 112 58 117 61 118 93 4 168 0 628 -6 673 -26 211 -192
398 -393 442 -62 14 -189 12 -251 -4z"/>
<path d="M4299 3402 c-13 -2 -15 -52 -13 -370 2 -202 5 -695 8 -1097 4 -616 7
-739 20 -788 50 -184 193 -326 377 -373 56 -15 166 -20 209 -11 8 2 31 7 50
11 58 13 153 64 207 111 68 59 121 142 151 234 l25 76 1 1099 c1 915 -1 1099
-13 1104 -13 5 -995 9 -1022 4z"/>
</g>
</svg>
