<svg xmlns="http://www.w3.org/2000/svg" viewBox="0 0 32 32" width="32" height="32">
<g>
	<path fill="#F9C030" d="M16,0c8.8,0,16,7.2,16,16s-7.2,16-16,16S0,24.8,0,16S7.2,0,16,0z"/>
	<path fill="#fff" d="M26.1,12.8l-9.8-4.3c-0.2-0.1-0.4-0.1-0.5,0l-9.8,4.3c-0.3,0.1-0.5,0.5-0.3,0.9c0.1,0.1,0.2,0.3,0.3,0.3l9.8,4.3c0.2,0.1,0.4,0.1,0.5,0l7-3v7c0,0.4,0.3,0.6,0.6,0.7c0.4,0,0.7-0.3,0.7-0.6c0,0,0,0,0,0V15c0-0.1-0.1-0.2-0.2-0.2l-8.4-1.1c-0.4-0.1-0.6-0.4-0.6-0.7c0-0.3,0.3-0.6,0.7-0.6c0,0,9.4,1.2,9.4,1.2c0.2,0,0.3,0.1,0.4,0.3c0,0.1,0.2,0.2,0.3,0.1c0,0,0,0,0,0c0.3-0.1,0.5-0.5,0.4-0.8C26.4,13,26.3,12.8,26.1,12.8z"/>
	<path fill="#fff" d="M15.2,19.4l-5.5-2.4c-0.1,0-0.2,0-0.3,0.1c0,0,0,0.1,0,0.1v2.4c0,2.2,2.9,3.9,6.6,3.9s6.6-1.7,6.6-3.9v-2.4c0-0.1-0.1-0.2-0.2-0.2c0,0-0.1,0-0.1,0l-5.5,2.4C16.3,19.7,15.7,19.7,15.2,19.4z"/>
</g>
</svg>
