<svg xmlns="http://www.w3.org/2000/svg" viewBox="0 0 32 32" width="32" height="32">
<g>
	<circle fill="#F9C030" cx="16" cy="16" r="16"/>
	<path fill="#fff" d="M16.9,20.5c-0.1,0-0.2,0-0.3,0c-0.9,0.2-1.6,0.9-1.8,1.8c-0.2,0.2-0.1,0.5,0.1,0.6c0.2,0.1,0.4,0.1,0.6,0c0.9-0.2,1.6-0.9,1.8-1.8c0.1-0.2,0.1-0.4,0-0.6C17.1,20.5,17,20.4,16.9,20.5z"/>
	<path fill="#fff" d="M10.5,18l1.4,7.5c0.1,0.3,0.3,0.5,0.6,0.5h7.1c0.3,0,0.5-0.2,0.6-0.5l1.4-7.5H10.5z M18.4,21.4c-0.3,1.3-1.4,2.4-2.7,2.7c-0.2,0-0.4,0.1-0.5,0.1c-0.4,0-0.8-0.1-1.1-0.4c-0.4-0.5-0.5-1.1-0.3-1.7c0.3-1.3,1.4-2.4,2.7-2.7c0.8-0.3,1.7,0.1,2,0.9C18.5,20.6,18.5,21,18.4,21.4L18.4,21.4z"/>
	<path fill="#fff" d="M19.7,8.8V7.3h1c0.3,0,0.6-0.3,0.6-0.6S21,6.1,20.7,6.1h-1.6c-0.3,0-0.6,0.3-0.6,0.6c0,0,0,0,0,0v1.4c-0.8-0.4-1.6-0.6-2.5-0.6c-2.7,0-5,1.9-5.6,4.5h11.1C21.3,10.7,20.6,9.6,19.7,8.8L19.7,8.8z"/>
	<path fill="#fff" d="M22.5,13.1H9.5c-0.3,0-0.6,0.3-0.6,0.6v2.5c0,0.3,0.3,0.6,0.6,0.6h12.9c0.3,0,0.6-0.3,0.6-0.6v-2.5C23,13.4,22.8,13.1,22.5,13.1z"/>
</g>
</svg>
