<svg xmlns="http://www.w3.org/2000/svg" viewBox="0 0 32 32" width="32" height="32">
<g>
	<circle fill="#F9C030" cx="16" cy="16" r="16"/>
	<path fill="#fff" d="M22.4,7.2H9.6c-0.2,0-0.4,0.2-0.4,0.4v17c0,0.2,0.2,0.4,0.4,0.4h3.8c0.2,0,0.4-0.2,0.4-0.4v-3.1h4.5v3.1c0,0.2,0.2,0.4,0.4,0.4h3.8c0.2,0,0.4-0.2,0.4-0.4v-17C22.8,7.4,22.6,7.2,22.4,7.2z M13.5,18.6c0,0.2-0.1,0.3-0.3,0.3c0,0,0,0,0,0h-1.7c-0.2,0-0.3-0.1-0.3-0.3c0,0,0,0,0,0v-1.7c0-0.2,0.1-0.3,0.3-0.3c0,0,0,0,0,0h1.7c0.2,0,0.3,0.1,0.3,0.3c0,0,0,0,0,0L13.5,18.6z M13.5,15c0,0.2-0.1,0.3-0.3,0.3c0,0,0,0,0,0h-1.7c-0.2,0-0.3-0.1-0.3-0.3c0,0,0,0,0,0v-1.7c0-0.2,0.1-0.3,0.3-0.3c0,0,0,0,0,0h1.7c0.2,0,0.3,0.1,0.3,0.3c0,0,0,0,0,0L13.5,15z M13.5,11.3c0,0.2-0.1,0.3-0.3,0.3c0,0,0,0,0,0h-1.7c-0.2,0-0.3-0.1-0.3-0.3c0,0,0,0,0,0V9.6c0-0.2,0.1-0.3,0.3-0.3c0,0,0,0,0,0h1.7c0.2,0,0.3,0.1,0.3,0.3c0,0,0,0,0,0L13.5,11.3z M17.2,18.6c0,0.2-0.1,0.3-0.3,0.3c0,0,0,0,0,0h-1.7c-0.2,0-0.3-0.1-0.3-0.3c0,0,0,0,0,0v-1.7c0-0.2,0.1-0.3,0.3-0.3c0,0,0,0,0,0h1.7c0.2,0,0.3,0.1,0.3,0.3c0,0,0,0,0,0L17.2,18.6z M17.2,15c0,0.2-0.1,0.3-0.3,0.3c0,0,0,0,0,0h-1.7c-0.2,0-0.3-0.1-0.3-0.3c0,0,0,0,0,0v-1.7c0-0.2,0.1-0.3,0.3-0.3c0,0,0,0,0,0h1.7c0.2,0,0.3,0.1,0.3,0.3c0,0,0,0,0,0L17.2,15z M17.2,11.3c0,0.2-0.1,0.3-0.3,0.3c0,0,0,0,0,0h-1.7c-0.2,0-0.3-0.1-0.3-0.3c0,0,0,0,0,0V9.6c0-0.2,0.1-0.3,0.3-0.3h1.7c0.2,0,0.3,0.1,0.3,0.3c0,0,0,0,0,0L17.2,11.3z M20.8,18.6c0,0.2-0.1,0.3-0.3,0.3c0,0,0,0,0,0h-1.7c-0.2,0-0.3-0.1-0.3-0.3c0,0,0,0,0,0v-1.7c0-0.2,0.1-0.3,0.3-0.3c0,0,0,0,0,0h1.7c0.2,0,0.3,0.1,0.3,0.3c0,0,0,0,0,0L20.8,18.6z M20.8,15c0,0.2-0.1,0.3-0.3,0.3c0,0,0,0,0,0h-1.7c-0.2,0-0.3-0.1-0.3-0.3c0,0,0,0,0,0v-1.7c0-0.2,0.1-0.3,0.3-0.3c0,0,0,0,0,0h1.7c0.2,0,0.3,0.1,0.3,0.3c0,0,0,0,0,0L20.8,15z M20.8,11.3c0,0.2-0.1,0.3-0.3,0.3c0,0,0,0,0,0h-1.7c-0.2,0-0.3-0.1-0.3-0.3c0,0,0,0,0,0V9.6c0-0.2,0.1-0.3,0.3-0.3c0,0,0,0,0,0h1.7c0.2,0,0.3,0.1,0.3,0.3c0,0,0,0,0,0L20.8,11.3z"/>
</g>
</svg>
