<svg xmlns="http://www.w3.org/2000/svg" width="32" height="32"><path fill="#F9C030" d="M16 0c8.8 0 16 7.2 16 16s-7.2 16-16 16S0 24.8 0 16 7.2 0 16 0z"/><path fill="#fff" d="M26.1 12.8l-9.8-4.3c-.2-.1-.4-.1-.5 0L6 12.8c-.3.1-.5.5-.3.9.1.1.2.3.3.3l9.8 4.3c.2.1.4.1.5 0l7-3v7c0 .4.3.6.6.7.4 0 .7-.3.7-.6V15c0-.1-.1-.2-.2-.2L16 13.7c-.4-.1-.6-.4-.6-.7 0-.3.3-.6.7-.6l9.4 1.2c.2 0 .3.1.4.3 0 .1.2.2.3.1.3-.1.5-.5.4-.8-.2-.2-.3-.4-.5-.4z"/><path fill="#fff" d="M15.2 19.4L9.7 17c-.1 0-.2 0-.3.1v2.5c0 2.2 2.9 3.9 6.6 3.9s6.6-1.7 6.6-3.9v-2.4c0-.1-.1-.2-.2-.2h-.1l-5.5 2.4c-.5.3-1.1.3-1.6 0z"/></svg>