<svg xmlns="http://www.w3.org/2000/svg" viewBox="0 0 32 32"><path d="M24.5 15.8c-.3-.3-.6-.4-1-.4h-.4L23 15c-.6-2.2-2.2-4-4.3-4.8.8 1.5.3 3.3-1.2 4.1-1.5.8-3.3.3-4.1-1.2-.3-.5-.4-1-.4-1.5h1c0 1.1.9 2 2 2s2-.9 2-2-.9-2-2-2h-.4c-1 0-1.8-.8-1.8-1.8h-1c0 .6.2 1.3.6 1.8h-.5c-1 0-1.8-.8-1.8-1.8h-1c0 1.3.9 2.5 2.3 2.8-1.6 1-2.8 2.5-3.3 4.3l-.1.5h-.4c-.8 0-1.5.7-1.5 1.5s.7 1.5 1.5 1.5H9l.1.4c1 3.8 5 6.1 8.9 5.1 2.5-.7 4.4-2.6 5.1-5.1l.1-.4h.4c.8 0 1.5-.7 1.5-1.5-.2-.4-.3-.8-.6-1.1zm-11.9.5c-.5 0-.8.4-.8.8h-1c0-1 .8-1.9 1.9-1.9 1 0 1.9.8 1.9 1.9h-1c-.1-.4-.5-.8-1-.8zm3.4 5.4c-1.1 0-2.2-.6-2.8-1.6l.9-.5c.6 1 1.9 1.4 3 .8.3-.2.6-.5.8-.8l.9.5c-.6 1-1.6 1.6-2.8 1.6zm4.2-4.6c0-.5-.4-.8-.8-.8-.5 0-.8.4-.8.8h-1c0-1 .8-1.9 1.9-1.9s1.9.8 1.9 1.9h-1.2z"/></svg>