<svg xmlns="http://www.w3.org/2000/svg" width="148" height="80"><style>.st0{fill:#f9c030}</style><path class="st0" d="M79.4 35.4c0 2.1 1.7 3.7 3.7 3.7 2.1 0 3.7-1.7 3.7-3.7V20.2h-7.5v15.2h.1z"/><path d="M89.5 10.3H68.4c-8.1.4-14.5 7.3-14.1 15.4.2 4 2 7.8 4.9 10.4C61.3 38 64 39 66.8 39h7.6c2.1 0 3.7-1.7 3.7-3.7v-.6c-.3-1.8-1.9-3.2-3.8-3.1h-6c-3.4 0-6.3-2.6-6.6-6v-.5c0-3.8 2.9-7 6.7-7.3h21.1c2.1 0 3.7-1.7 3.7-3.7s-1.7-3.8-3.7-3.8z" fill="#1d1d1d"/><path class="st0" d="M72.1 0c-2.1 0-3.7 1.7-3.7 3.7v19.8c0 2.1 1.7 3.7 3.7 3.7 2.1 0 3.7-1.7 3.7-3.7V3.7c.2-2-1.6-3.7-3.7-3.7zM62 9.6V5.1c0-2.1-1.6-3.8-3.7-3.8-2 0-3.7 1.6-3.8 3.7v11.7C56 13.5 58.6 11 62 9.6z"/><path d="M32.4 71.817H39v1.6h-2.4v6.5h-1.8v-6.6h-2.4v-1.5zm7.8 0h5.7v1.5H42v1.7h3.6v1.5H42v1.8h4v1.5h-5.8v-8zm8.5 8h-2l2.9-4.2-2.7-3.8h2l1.8 2.6 1.8-2.6h2l-2.7 3.8 2.9 4.2h-2l-1.9-2.9-2.1 2.9zm12.4-8h1.7v8.1h-1.7v-3.3h-3.6v3.2h-1.7v-8h1.7v3.2h3.6v-3.2zm3.5 5.6c-.4-1-.4-2.1 0-3.2.2-.5.4-.9.8-1.3s.8-.7 1.4-.9c1.2-.5 2.5-.5 3.7 0 .5.2 1 .5 1.4.9.3.4.6.8.8 1.3.4 1 .4 2.1 0 3.2-.2.5-.4.9-.8 1.3s-.8.7-1.4.9c-1.2.5-2.5.5-3.7 0-.5-.2-1-.5-1.4-.9-.3-.4-.5-.8-.8-1.3zm5.9.2c.9-1.1.9-2.6 0-3.7-1-1-2.7-1-3.7 0-.9 1.1-.9 2.7 0 3.7 1.1 1 2.7 1 3.7 0zm5.2-5.8h5.5v8.1h-1.7v-6.6h-2.2c0 .6-.1 1.1-.1 1.5 0 .4-.1.8-.2 1.3-.1.4-.1.8-.2 1.3-.1.3-.2.7-.3 1-.1.3-.3.6-.5.8-.2.2-.4.4-.7.5-.3.1-.6.2-.9.2-.3 0-.6 0-.9-.1v-1.5c.2 0 .4.1.6.1.1 0 .3-.1.4-.1.1-.1.3-.2.3-.4.1-.3.2-.5.3-.7s.2-.5.2-.7c.1-.3.1-.6.1-.8s.1-.6.1-1 .1-.7.1-1c0-.3 0-.6.1-1 .2-.4 0-.7 0-.9zm7.4 5.6c-.4-1-.4-2.1 0-3.2.2-.5.4-.9.8-1.3s.8-.7 1.4-.9c1.2-.5 2.5-.5 3.7 0 .5.2 1 .5 1.4.9.3.4.6.8.8 1.3.4 1 .4 2.1 0 3.2-.2.5-.4.9-.8 1.3s-.8.7-1.4.9c-1.2.5-2.5.5-3.7 0-.5-.2-1-.5-1.4-.9-.4-.4-.5-.8-.8-1.3zm5.9.2c.9-1.1.9-2.6 0-3.7-1-1-2.7-1-3.7 0-.9 1.1-.9 2.6 0 3.7 1.1 1 2.7 1 3.7 0zm5.7 2.2H93v-8h5.6v1.6h-3.9v6.4zm12.4 0h-1.7v-5.2l-3.8 5.3H100v-8.1h1.7v5.3l3.8-5.3h1.6v8zm9 0h-1.7v-5.2l-3.8 5.3H109v-8.1h1.7v5.3l3.8-5.3h1.6v8zM5.6 55.144h1.7v8.1H5.6v-3.3H2v3.2H.3v-8H2v3.2h3.6v-3.2zm3.6 5.6c-.4-1-.4-2.1 0-3.2.2-.5.4-.9.8-1.3s.8-.7 1.4-.9c1.2-.5 2.5-.5 3.7 0 .5.2 1 .5 1.4.9.3.4.6.8.8 1.3.4 1 .4 2.1 0 3.2-.2.5-.4.9-.8 1.3s-.8.7-1.4.9c-1.2.5-2.5.5-3.7 0-.5-.2-1-.5-1.4-.9-.4-.4-.6-.8-.8-1.3zm5.8.2c.9-1 .9-2.6 0-3.7-1-1-2.7-1-3.7 0-.9 1.1-.9 2.6 0 3.7 1.2 1 2.7 1 3.7 0zm4-5.8h3.5c.7 0 1.4.1 2.1.5.5.3.8.9.7 1.5.1.8-.4 1.5-1.2 1.8.4.1.8.4 1.1.7.3.3.5.8.5 1.3 0 .4-.1.8-.3 1.1-.2.3-.5.5-.8.7-.3.2-.7.3-1 .3-.4.1-.7.1-1.1.1H19v-8zm5 5.6c0-.7-.5-1-1.4-1h-1.8v2.1h1.7c.4 0 .7-.1 1.1-.2.3-.3.4-.6.4-.9zm-.4-3.3c0-.6-.4-.9-1.2-.9h-1.6v1.8h1.7c.3 0 .6-.1.8-.2.2-.2.3-.4.3-.7zm6.8 5.7h-3v-8h1.7v2.6h1.3c2.3 0 3.5.9 3.5 2.7 0 1.8-1.3 2.7-3.5 2.7zm-1.4-3.9v2.4h1.4c1.1 0 1.6-.4 1.6-1.2 0-.8-.5-1.2-1.6-1.2H29zm7.1 3.9h-1.7v-8h1.7v8zm2.1-8h5.7v1.5h-4v1.7h3.6v1.5h-3.6v1.8h4v1.5h-5.7v-8zm9.8 4.1c0-.7.1-1.3.4-1.9.2-.5.6-1 1-1.4.4-.3.9-.6 1.4-.8.5-.2 1-.3 1.6-.3.8 0 1.6.2 2.3.5v1.6c-.6-.4-1.3-.7-2-.6-.7 0-1.4.2-2 .7-.6.5-.9 1.3-.8 2.1 0 .4.1.8.2 1.1.1.3.4.6.7.8.3.2.6.4.9.5.3.1.7.2 1 .2.8 0 1.5-.2 2.1-.7v1.7c-.7.3-1.5.5-2.3.5-.5 0-1.1-.1-1.6-.3-.5-.2-1-.4-1.4-.7s-.8-.8-1-1.3c-.4-.5-.5-1.1-.5-1.7zm7.5-4.1h6.7v1.6h-2.5v6.5H58v-6.6h-2.5v-1.5zm8.1 0h3c2.3 0 3.5.9 3.5 2.7s-1.2 2.7-3.5 2.7h-1.3v2.6h-1.7v-8zm4.6 2.7c0-.8-.5-1.2-1.6-1.2h-1.4v2.4h1.4c1.1 0 1.6-.4 1.6-1.2zm3.2 2.9c-.4-1-.4-2.1 0-3.2.2-.5.4-.9.8-1.3s.8-.7 1.4-.9c1.2-.5 2.5-.5 3.7 0 .5.2 1 .5 1.4.9.3.4.6.8.8 1.3.4 1 .4 2.1 0 3.2-.2.5-.4.9-.8 1.3s-.8.7-1.4.9c-1.2.5-2.5.5-3.7 0-.5-.2-1-.5-1.4-.9-.5-.4-.8-.8-.8-1.3zm5.7.2c.9-1.1.9-2.6 0-3.7-1-1-2.7-1-3.7 0-.9 1.1-.9 2.6 0 3.7 1 1 2.7 1 3.7 0zm11.1 2.2h-1.7v-5.2l-3.8 5.3h-1.6v-8.1h1.7v5.3l3.8-5.3h1.6v8zm1.4-8h6.7v1.6h-2.5v6.5h-1.7v-6.6h-2.5v-1.5zm8 0h5.7v1.5h-3.9v1.7h3.6v1.5h-3.6v1.8h4v1.5h-5.7l-.1-8zm8.8 0h5.5v8.1h-1.7v-6.6H108c0 .6-.1 1.1-.1 1.5s-.1.8-.2 1.3c-.1.4-.1.8-.2 1.3-.1.3-.2.7-.3 1s-.3.6-.5.8-.4.4-.7.5c-.3.1-.6.2-.9.2s-.6 0-.9-.1v-1.5c.2 0 .4.1.6.1.1 0 .3-.1.4-.1.1-.1.3-.2.3-.4l.3-.6c.1-.2.2-.5.2-.7v-1c0-.3.1-.6.1-.9l.1-1c0-.2 0-.6.1-1 0-.4.1-.7.1-.9zm10.5 8h-3v-8h1.7v2.6h1.3c2.3 0 3.5.9 3.5 2.7 0 1.8-1.2 2.7-3.5 2.7zm-1.3-3.9v2.4h1.4c1.1 0 1.6-.4 1.6-1.2 0-.8-.5-1.2-1.6-1.2h-1.4zm11.5-4.1h1.7v8.1h-1.7v-3.3h-3.6v3.2h-1.7v-8h1.7v3.2h3.6v-3.2zm6.8 8h-3v-8h1.7v2.6h1.3c2.3 0 3.5.9 3.5 2.7 0 1.8-1.2 2.7-3.5 2.7zm-1.3-3.9v2.4h1.4c1.1 0 1.6-.4 1.6-1.2 0-.8-.5-1.2-1.6-1.2h-1.4zm7.2 3.9h-1.7v-8h1.7v8zm2-8h5.7v1.5h-3.9v1.7h3.6v1.5h-3.6v1.8h4v1.5h-5.7l-.1-8z"/></svg>