<svg xmlns="http://www.w3.org/2000/svg" width="230" height="45"><style>.st0{fill:#f9c030}</style><path class="st0" d="M29 40.6c0 2.4 1.9 4.3 4.3 4.3s4.3-1.9 4.3-4.3V23.1H29v17.5z"/><path d="M40.9 11.8H16.5C7.1 12.2-.2 20.1.2 29.5c.2 4.6 2.3 9 5.7 12H6c2.4 2.1 5.5 3.3 8.7 3.3h8.8c2.4 0 4.3-1.9 4.3-4.3v-.6c-.4-2.1-2.2-3.7-4.4-3.6h-6.9c-4 0-7.3-3-7.6-6.9v-.5c0-4.4 3.4-8.1 7.8-8.4h24.4c2.4 0 4.3-1.9 4.3-4.3s-2.2-4.4-4.5-4.4z" fill="#1d1d1d"/><path class="st0" d="M20.8.1c-2.4 0-4.3 1.9-4.3 4.3v22.9c0 2.4 1.9 4.3 4.3 4.3s4.3-1.9 4.3-4.3V4.4c0-2.4-2-4.3-4.3-4.3zM9 11V5.8c0-2.4-1.9-4.3-4.3-4.3S.4 3.4.4 5.8v13.3C2.2 15.5 5.2 12.6 9 11z"/><path d="M60.2 32.738h7.7v1.8H65v7.5h-2v-7.5h-2.8v-1.8zm9.2 0h6.5v1.7h-4.6v2h4.2v1.7h-4.2v2.1H76v1.8h-6.6v-9.3zm9.7 9.3h-2.3l3.3-4.8-3.1-4.5h2.3l2.1 3.1 2-3.1h2.3l-3.1 4.5 3.3 4.8h-2.3l-2.2-3.4-2.3 3.4zm14.2-9.3h2v9.3h-2v-3.7h-4.2v3.7h-2v-9.3h2v3.7h4.2v-3.7zm4.2 6.5c-.4-1.2-.4-2.5 0-3.6.2-.6.5-1.1.9-1.5.4-.5 1-.8 1.6-1.1 1.4-.5 2.9-.5 4.3 0 .6.2 1.1.6 1.6 1.1.4.4.7 1 .9 1.5.4 1.2.4 2.5 0 3.6-.2.6-.5 1.1-.9 1.5-.4.5-1 .8-1.6 1.1-1.4.5-2.9.5-4.3 0-.6-.2-1.1-.6-1.6-1.1-.4-.4-.7-.9-.9-1.5zm6.7.3c1-1.2 1-3 0-4.3-1.2-1.1-3.1-1.1-4.3 0-1 1.2-1 3 0 4.3 1.2 1.1 3.1 1.1 4.3 0zm6-6.8h6.4v9.3h-2v-7.5h-2.5c-.1.7-.1 1.2-.1 1.7 0 .4-.1 1-.2 1.5s-.2 1-.3 1.4c-.1.4-.2.8-.4 1.2-.1.3-.3.7-.6 1-.2.2-.5.4-.8.6-.3.2-.6.2-1 .2s-.7-.1-1-.2v-1.8c.2.1.4.1.6.1s.3-.1.5-.2.3-.3.4-.5l.3-.6c.1-.3.2-.6.2-.9.1-.4.1-.7.2-1 .1-.3.1-.6.1-1.1s.1-.8.1-1.1c0-.3 0-.7.1-1.2v-.9zm8.5 6.5c-.4-1.2-.4-2.5 0-3.6.2-.6.5-1.1.9-1.5.4-.5 1-.8 1.6-1.1 1.4-.5 2.9-.5 4.3 0 .6.2 1.1.6 1.6 1.1.4.4.7 1 .9 1.5.4 1.2.4 2.5 0 3.6-.2.6-.5 1.1-.9 1.5-.4.5-1 .8-1.6 1.1-1.4.5-2.9.5-4.3 0-.6-.2-1.1-.6-1.6-1.1-.4-.4-.7-.9-.9-1.5zm6.8.3c1-1.2 1-3 0-4.3-1.2-1.1-3.1-1.1-4.3 0-1 1.2-1 3 0 4.3 1.2 1.1 3.1 1.1 4.3 0zm6.6 2.5h-2v-9.3h6.5v1.8h-4.5v7.5zm14.1 0h-2v-6.1l-4.3 6.1H138v-9.3h2v6.1l4.3-6.1h1.9v9.3zm10.5 0h-2v-6.1l-4.3 6.1h-1.9v-9.3h2v6.1l4.3-6.1h1.9v9.3zm-90.323-28.2h2v9.3h-2v-3.7h-4.2v3.7h-2v-9.3h2v3.8h4.2v-3.8zm4.1 6.5c-.4-1.2-.4-2.5 0-3.6.2-.6.5-1.1.9-1.5.4-.5 1-.8 1.6-1.1 1.4-.5 2.9-.5 4.3 0 .6.2 1.1.6 1.6 1.1.4.4.7 1 .9 1.5.4 1.2.4 2.5 0 3.6-.2.6-.5 1.1-.9 1.5-.4.5-1 .8-1.6 1.1-1.4.5-2.9.5-4.3 0-.6-.2-1.1-.6-1.6-1.1-.4-.4-.7-.9-.9-1.5zm6.7.3c1-1.2 1-3 0-4.3-1.2-1.1-3.1-1.1-4.3 0-1 1.2-1 3 0 4.3 1.2 1.2 3.1 1.2 4.3 0zm4.6-6.8h4.1c.8 0 1.7.2 2.4.6.6.4.9 1.1.8 1.8.1.9-.5 1.8-1.4 2 .5.2.9.4 1.3.8s.5 1 .5 1.5-.1.9-.3 1.3c-.3.4-.6.7-1 .8-.4.2-.8.3-1.2.4-.4.1-.8.1-1.3.1h-4l.1-9.3zm5.7 6.5c0-.8-.5-1.2-1.6-1.2h-2.1v2.4h2c.4 0 .9-.1 1.2-.3.3-.1.5-.5.5-.9zm-.4-3.8c0-.7-.5-1.1-1.4-1.1h-1.9v2.2h2c.3 0 .7-.1.9-.3.3-.2.4-.5.4-.8zm7.7 6.6h-3.5v-9.3h2v3h1.5c2.7 0 4 1.1 4 3.1 0 2.2-1.4 3.2-4 3.2zm-1.5-4.5v2.7h1.6c1.3 0 1.9-.5 1.9-1.4s-.6-1.4-1.9-1.4h-1.6v.1zm8.2 4.5h-2v-9.3h2v9.3zm2.3-9.3h6.5v1.8h-4.6v2h4.2v1.7h-4.2v2.1h4.6v1.8h-6.6l.1-9.4zm11.3 4.8c0-.8.1-1.5.4-2.2.3-.6.6-1.1 1.1-1.6.5-.4 1-.7 1.6-.9.6-.2 1.2-.3 1.8-.3.9 0 1.8.2 2.7.6v1.9c-.7-.5-1.5-.8-2.3-.7-.8 0-1.7.3-2.3.8-.7.6-1 1.5-1 2.4 0 .5.1.9.3 1.3.2.4.5.7.8.9s.7.4 1 .5c.4.1.8.2 1.2.2.9.1 1.8-.2 2.4-.7v1.9c-.8.4-1.8.6-2.7.6-.6 0-1.2-.1-1.8-.3-.6-.2-1.1-.5-1.6-.8-.5-.4-.9-.9-1.2-1.5-.3-.7-.4-1.4-.4-2.1zm8.7-4.8h7.7v1.8h-2.9v7.5h-2v-7.5h-2.9l.1-1.8zm9.2 0h3.5c2.7 0 4 1 4 3.1s-1.3 3.1-4 3.1h-1.5v3.1h-2v-9.3zm5.5 3.2c0-.9-.6-1.4-1.9-1.4h-1.6v2.7h1.6c1.2 0 1.9-.4 1.9-1.3zm3.5 3.3c-.4-1.2-.4-2.5 0-3.6.2-.6.5-1.1.9-1.6s1-.8 1.6-1.1c1.4-.5 2.9-.5 4.3 0 .6.2 1.1.6 1.6 1.1.4.4.7 1 .9 1.5.4 1.2.4 2.5 0 3.6-.2.6-.5 1.1-.9 1.5-.4.5-1 .8-1.6 1.1-1.4.5-2.9.5-4.3 0-.6-.2-1.1-.6-1.6-1.1-.4-.3-.7-.8-.9-1.4zm6.7.3c1-1.2 1-3 0-4.3-1.2-1.1-3.1-1.1-4.3 0-1 1.2-1 3 0 4.3 1.2 1.2 3.1 1.2 4.3 0zm12.8 2.5h-2v-6.1l-4.3 6.1h-1.9v-9.3h2v6.1l4.3-6.1h1.9v9.3zm1.5-9.3h7.7v1.8h-2.9v7.5h-2v-7.5h-2.9l.1-1.8zm9.2 0h6.5v1.8h-4.6v2h4.2v1.7h-4.2v2.1h4.6v1.8h-6.5v-9.4zm10.1 0h6.4v9.3h-2v-7.5h-2.5c-.1.7-.1 1.2-.1 1.7s-.1 1-.2 1.5-.2 1-.3 1.4c-.1.4-.2.8-.4 1.2-.1.3-.3.7-.6 1-.2.2-.5.4-.8.6-.3.2-.6.2-1 .2s-.7-.1-1-.2v-1.7c.2.1.4.1.6.1s.3-.1.5-.2.3-.3.4-.5l.3-.6c.1-.3.2-.6.2-.9.1-.4.1-.7.2-1 0-.3.1-.6.1-1.1s.1-.8.1-1.1 0-.7.1-1.2 0-.7 0-1zm12.2 9.3h-3.5v-9.3h2v3h1.5c2.7 0 4 1.1 4 3.1 0 2.2-1.3 3.2-4 3.2zm-1.5-4.5v2.7h1.6c1.3 0 1.9-.5 1.9-1.4s-.6-1.4-1.9-1.4h-1.6v.1zm13.3-4.8h2v9.3h-2v-3.7h-4.1v3.7h-2v-9.3h2v3.8h4.2l-.1-3.8zm7.9 9.3h-3.5v-9.3h2v3h1.5c2.7 0 4 1.1 4 3.1 0 2.2-1.4 3.2-4 3.2zm-1.6-4.5v2.7h1.6c1.3 0 1.9-.5 1.9-1.4s-.6-1.4-1.9-1.4h-1.6v.1zm8.3 4.5h-2v-9.3h2v9.3zm2.3-9.3h6.5v1.8h-4.5v2h4.2v1.7h-4.2v2.1h4.6v1.8h-6.6v-9.4z"/></svg>