<svg xmlns="http://www.w3.org/2000/svg" viewBox="0 0 18 18"><path d="M17.2 14.3h-2c-.4-1.4-1.9-2.2-3.2-1.8-.9.2-1.5.9-1.8 1.8H.7c-.4 0-.7.3-.7.7s.3.8.8.8h9.5c.4 1.4 1.9 2.2 3.2 1.8.9-.2 1.5-.9 1.8-1.8h2c.4 0 .8-.3.8-.8s-.4-.7-.9-.7zm-4.5 1.8c-.6 0-1.1-.5-1.1-1.1s.5-1.1 1.1-1.1 1.1.5 1.1 1.1c.1.6-.4 1.1-1.1 1.1zm4.5-13.8h-2C14.8.9 13.3.1 12 .5c-.9.2-1.5.9-1.8 1.8H.7c-.4 0-.7.3-.7.7s.3.8.8.8h9.5c.4 1.4 1.9 2.2 3.2 1.8.9-.2 1.5-.9 1.8-1.8h2c.4 0 .7-.4.7-.8s-.3-.7-.8-.7zm-4.5 1.8c-.6 0-1.1-.5-1.1-1.1s.5-1.1 1.1-1.1 1.1.5 1.1 1.1c.1.6-.4 1.1-1.1 1.1zm4.5 4.2H7.7c-.4-1.4-1.8-2.2-3.2-1.8-.8.2-1.5.9-1.8 1.8h-2c-.4 0-.7.3-.7.7s.3.8.8.8h2c.4 1.4 1.9 2.2 3.2 1.8.9-.2 1.5-.9 1.8-1.8h9.5c.4 0 .7-.4.7-.8s-.3-.7-.8-.7zm-12 1.8c-.6 0-1.1-.5-1.1-1.1s.5-1.1 1.1-1.1 1.2.5 1.2 1.1c0 .6-.5 1.1-1.2 1.1z"/></svg>